<svg xmlns="http://www.w3.org/2000/svg" xmlns:xlink="http://www.w3.org/1999/xlink" width="786" zoomAndPan="magnify" viewBox="0 0 589.5 589.499966" height="786" preserveAspectRatio="xMidYMid meet" version="1.0"><defs><clipPath id="478b112bb2"><path d="M 0 0 L 588.402344 0 L 588.402344 588.402344 L 0 588.402344 Z M 0 0 " clip-rule="nonzero"/></clipPath><clipPath id="ead3e6e3d7"><path d="M 294.199219 0 C 131.71875 0 0 131.71875 0 294.199219 C 0 456.683594 131.71875 588.402344 294.199219 588.402344 C 456.683594 588.402344 588.402344 456.683594 588.402344 294.199219 C 588.402344 131.71875 456.683594 0 294.199219 0 Z M 294.199219 0 " clip-rule="nonzero"/></clipPath><clipPath id="751fbe67e2"><path d="M 11.457031 13 L 584 13 L 584 577 L 11.457031 577 Z M 11.457031 13 " clip-rule="nonzero"/></clipPath></defs><g clip-path="url(#478b112bb2)"><g clip-path="url(#ead3e6e3d7)"><path fill="#887bb0" d="M 0 0 L 588.402344 0 L 588.402344 588.402344 L 0 588.402344 Z M 0 0 " fill-opacity="1" fill-rule="nonzero"/></g></g><path fill="#ffdd68" d="M 56.488281 308.183594 C 59.980469 267.941406 64.511719 227.699219 81.285156 190.261719 C 86.8125 177.949219 94.894531 166.511719 103.285156 155.847656 C 122.195312 131.835938 145.269531 112.152344 169.785156 93.929688 C 187.191406 80.992188 206.832031 73.636719 227.101562 67.257812 C 229.175781 66.609375 231.976562 65.53125 233.5 66.363281 C 238.640625 69.167969 243.25 67.136719 248.023438 65.9375 C 266.953125 61.164062 286.105469 61.082031 305.320312 63.480469 C 327.238281 66.222656 348.6875 70.996094 369.585938 78.308594 C 402.1875 89.726562 428.996094 109.53125 452.84375 134.132812 C 466.757812 148.496094 479.066406 164.097656 488.308594 181.546875 C 500.554688 204.683594 511.402344 228.757812 514.753906 255.144531 C 516.722656 270.582031 518.570312 286.246094 518.226562 301.746094 C 517.738281 323.421875 516.234375 345.15625 511.542969 366.488281 C 508.230469 381.539062 503.234375 395.921875 496.492188 409.835938 C 486.742188 429.988281 475.976562 449.347656 461.941406 466.960938 C 449.613281 482.441406 435.089844 495.238281 418.515625 505.761719 C 395.261719 520.53125 370.582031 532.230469 343.203125 536.742188 C 326.730469 539.464844 310.113281 539.808594 293.257812 538.425781 C 270.832031 536.597656 249.199219 531.84375 227.753906 525.628906 C 222.675781 524.167969 217.71875 522.214844 212.84375 520.183594 C 210.875 519.371094 208.253906 518.050781 207.664062 516.367188 C 205.773438 510.980469 201.125 509.90625 196.816406 508.058594 C 168.382812 495.890625 141.9375 480.265625 119.738281 458.734375 C 99.6875 439.273438 81.792969 417.761719 71.515625 391.167969 C 64.125 372.054688 60.773438 351.960938 58.417969 331.6875 C 57.480469 323.96875 57.117188 316.167969 56.488281 308.183594 Z M 56.488281 308.183594 " fill-opacity="1" fill-rule="nonzero"/><path fill="#ffe690" d="M 492.042969 348.285156 C 491.394531 363.09375 488.613281 375.890625 483.472656 388.039062 C 476.464844 404.617188 466.859375 419.648438 454.082031 432.367188 C 450.019531 436.410156 444.882812 439.640625 439.742188 442.238281 C 429.039062 447.640625 418.03125 446.261719 408.949219 439.230469 C 400.011719 432.304688 391.503906 424.320312 384.535156 415.445312 C 373.019531 400.777344 362.800781 385.074219 352.261719 369.65625 C 348.644531 364.375 345.355469 358.828125 342.492188 353.121094 C 336.660156 341.519531 341.210938 330.792969 353.722656 326.652344 C 358.984375 324.902344 364.527344 323.886719 369.992188 322.832031 C 390.222656 318.910156 410.414062 314.542969 430.785156 311.476562 C 444.820312 309.363281 458.996094 309.324219 472.707031 315.234375 C 482.558594 319.480469 488.792969 325.917969 490.378906 336.625 C 491.007812 341.011719 491.617188 345.402344 492.042969 348.285156 Z M 492.042969 348.285156 " fill-opacity="1" fill-rule="nonzero"/><path fill="#ffe690" d="M 81.714844 337.214844 C 81.773438 315.621094 94.285156 303.574219 114.007812 304.652344 C 119.269531 304.933594 124.550781 305.789062 129.667969 306.988281 C 154.632812 312.753906 179.554688 318.625 204.433594 324.679688 C 209.003906 325.777344 213.59375 327.320312 217.738281 329.496094 C 228.542969 335.164062 231.246094 346.191406 224.238281 356.167969 C 214.652344 369.820312 205.207031 383.550781 193.019531 395.230469 C 182.195312 405.632812 172.28125 416.96875 161.71875 427.652344 C 158.632812 430.78125 155.015625 433.625 151.179688 435.738281 C 142.160156 440.714844 133.367188 439.292969 126.03125 432.121094 C 111.773438 418.167969 100.238281 402.261719 91.707031 384.179688 C 84.457031 368.703125 83.277344 352.003906 81.714844 337.214844 Z M 81.714844 337.214844 " fill-opacity="1" fill-rule="nonzero"/><path fill="#ffe690" d="M 267.867188 517.117188 C 259.703125 515.65625 251.3125 514.945312 243.433594 512.566406 C 228.789062 508.160156 222.550781 499.039062 223.75 483.597656 C 224.359375 475.636719 226.148438 467.550781 228.726562 459.972656 C 237.277344 434.84375 248.226562 410.773438 262.667969 388.40625 C 265.671875 383.734375 268.921875 379.164062 272.519531 374.917969 C 276.4375 370.304688 278.753906 370.285156 284.015625 373.089844 C 285.882812 374.085938 288.136719 375.101562 290.148438 374.957031 C 299.917969 374.289062 306.074219 379.449219 310.074219 387.410156 C 313.566406 394.359375 316.25 401.710938 319.152344 408.945312 C 325.410156 424.445312 331.847656 439.863281 334.792969 456.480469 C 336.742188 467.488281 335.542969 478.195312 332.679688 488.71875 C 330.121094 498.082031 324.191406 504.867188 314.828125 508.320312 C 299.714844 513.867188 284.074219 516.082031 267.867188 517.117188 Z M 267.867188 517.117188 " fill-opacity="1" fill-rule="nonzero"/><path fill="#ffe690" d="M 221.71875 284.722656 C 217.757812 283.6875 210.40625 282.101562 203.277344 279.828125 C 175.410156 270.910156 147.605469 261.828125 119.839844 252.605469 C 115.125 251.042969 110.574219 248.664062 106.269531 246.144531 C 95.648438 239.929688 90.019531 228.105469 92.660156 216.203125 C 97.070312 196.394531 106.71875 180.023438 124.875 169.539062 C 134.097656 164.21875 143.339844 162.449219 153.59375 166.738281 C 161.171875 169.90625 168.015625 173.847656 173.949219 179.535156 C 194.929688 199.667969 213.839844 221.523438 230.394531 245.453125 C 236.628906 254.472656 240.609375 263.777344 237.460938 275.152344 C 235.042969 283.929688 234.273438 284.964844 221.71875 284.722656 Z M 221.71875 284.722656 " fill-opacity="1" fill-rule="nonzero"/><path fill="#ffe690" d="M 351.691406 270.054688 C 349.457031 270.054688 347.222656 270.199219 345.011719 270.015625 C 330.222656 268.675781 322.078125 256.019531 328.109375 242.40625 C 331.097656 235.664062 336.175781 229.832031 340.417969 223.65625 C 343.101562 219.777344 346.167969 216.183594 348.746094 212.261719 C 357.625 198.753906 365.929688 184.855469 375.253906 171.671875 C 384.007812 159.34375 397.292969 153.53125 411.792969 152.210938 C 418.332031 151.625 425.769531 153.917969 431.839844 156.84375 C 448.578125 164.910156 457.535156 179.554688 461.617188 197.085938 C 464.359375 208.847656 459.992188 218.984375 452.03125 227.761719 C 442.707031 238.058594 431.578125 246.003906 418.964844 251.488281 C 401.578125 259.066406 383.824219 265.808594 364.957031 268.917969 C 360.570312 269.628906 356.140625 270.035156 351.734375 270.5625 C 351.710938 270.402344 351.691406 270.21875 351.691406 270.054688 Z M 351.691406 270.054688 " fill-opacity="1" fill-rule="nonzero"/><path fill="#ffe690" d="M 314.378906 135.878906 C 311.535156 154.507812 308.753906 173.765625 305.566406 192.960938 C 304.164062 201.472656 302.457031 210.007812 299.917969 218.214844 C 297.21875 226.949219 293.539062 235.378906 289.988281 243.828125 C 288.28125 247.914062 284.828125 250.308594 280.398438 251.082031 C 276.582031 251.753906 273.1875 251.203125 270.875 247.628906 C 267.542969 242.507812 263.867188 237.574219 260.839844 232.269531 C 251.738281 216.324219 242.519531 200.4375 234.050781 184.144531 C 228.035156 172.585938 222.371094 160.703125 217.984375 148.453125 C 214.226562 137.953125 218.773438 127.996094 227.652344 121.457031 C 230.738281 119.179688 233.378906 116.277344 236.261719 113.695312 C 238.945312 111.277344 241.359375 108.433594 244.40625 106.605469 C 261.429688 96.410156 279.242188 92.304688 298.597656 99.84375 C 304.875 102.28125 308.996094 106.464844 310.398438 112.84375 C 312.003906 120.175781 312.980469 127.589844 314.378906 135.878906 Z M 314.378906 135.878906 " fill-opacity="1" fill-rule="nonzero"/><path fill="#fff5cf" d="M 550.601562 286.570312 C 550.582031 289.921875 550.460938 293.273438 550.582031 296.605469 C 552.085938 338.554688 540.769531 377.660156 524.5625 415.75 C 517.3125 432.773438 509.144531 449.328125 497.140625 463.445312 C 488.328125 473.808594 478.738281 483.699219 468.421875 492.558594 C 438.21875 518.476562 403.242188 536.234375 366.316406 550.414062 C 351.367188 556.160156 335.769531 559.085938 319.964844 561.078125 C 290.414062 564.792969 260.941406 563.515625 231.691406 558.640625 C 213.472656 555.613281 196.390625 548.625 179.65625 540.742188 C 158.042969 530.566406 137.996094 517.765625 120 502.347656 C 101.820312 486.769531 84.332031 469.90625 71.742188 449.308594 C 59.816406 429.804688 50.109375 409.003906 43.648438 386.902344 C 40.21875 375.121094 36.640625 363.378906 33.675781 351.476562 C 28.824219 332.035156 29.351562 312.328125 30.996094 292.480469 C 33.332031 264.226562 41.050781 237.105469 47.183594 209.660156 C 49.234375 200.4375 50.230469 190.789062 53.683594 182.113281 C 62.277344 160.703125 75.234375 141.769531 90.652344 124.746094 C 107.347656 106.300781 126.15625 90.132812 146.691406 75.992188 C 174.332031 56.957031 204.984375 45.886719 237.867188 40.402344 C 256.65625 37.273438 275.605469 35.996094 294.535156 37.375 C 344.523438 41.050781 392.945312 51.089844 436.410156 77.617188 C 447.988281 84.6875 458.714844 93.382812 469.03125 102.257812 C 498.078125 127.226562 518.0625 159.015625 535.285156 192.699219 C 545.910156 213.460938 550.316406 235.765625 550.640625 258.921875 C 550.785156 268.167969 550.621094 277.367188 550.601562 286.570312 Z M 515.644531 308.917969 C 514.710938 301.929688 514.285156 296.363281 513.167969 290.917969 C 511.683594 283.605469 505.511719 278.242188 497.875 277.53125 C 494.296875 277.207031 490.5625 277.164062 487.046875 277.855469 C 477.480469 279.703125 467.953125 281.835938 458.488281 284.195312 C 438.21875 289.230469 418.128906 295.101562 397.71875 299.492188 C 381.957031 302.863281 365.808594 304.40625 349.84375 306.964844 C 347.246094 307.394531 344.339844 308.308594 342.371094 309.933594 C 336.175781 315.09375 330.527344 320.902344 324.3125 326.042969 C 320.65625 329.066406 320.472656 331.730469 322.140625 336.117188 C 334.304688 368.011719 350.472656 397.871094 367.574219 427.308594 C 375.292969 440.59375 383.460938 453.636719 394.875 464.097656 C 411.304688 479.191406 430.804688 480.875 447.886719 466.839844 C 466.9375 451.175781 481.503906 431.757812 489.851562 408.414062 C 496.898438 388.773438 503.398438 368.863281 508.800781 348.691406 C 512.394531 335.304688 513.59375 321.308594 515.644531 308.917969 Z M 63.414062 314.6875 C 63.230469 314.707031 63.027344 314.707031 62.84375 314.726562 C 63.414062 321.9375 63.230469 329.292969 64.714844 336.300781 C 70.929688 365.59375 80.394531 393.769531 94.164062 420.503906 C 103.914062 439.433594 117.929688 454.773438 133.164062 469.175781 C 138.503906 474.234375 147.867188 475.351562 153.433594 471.59375 C 158.714844 468.039062 164.277344 464.257812 168.097656 459.304688 C 186.96875 434.804688 205.550781 410.101562 223.691406 385.054688 C 235.449219 368.804688 246.234375 351.859375 257.488281 335.222656 C 259.050781 332.90625 261.003906 330.835938 262.300781 328.417969 C 265.511719 322.425781 262.707031 316.535156 256.148438 315.070312 C 253.972656 314.585938 251.738281 314.320312 249.585938 313.773438 C 203.09375 301.929688 156.011719 292.910156 108.726562 284.964844 C 99.992188 283.503906 91.015625 282.832031 82.160156 282.773438 C 71.660156 282.691406 63.960938 290.777344 63.515625 301.296875 C 63.292969 305.746094 63.414062 310.214844 63.414062 314.6875 Z M 272.195312 342.964844 C 271.21875 344.101562 270.386719 344.851562 269.835938 345.765625 C 251.71875 376.136719 233.296875 406.324219 215.667969 436.976562 C 208.617188 449.226562 202.789062 462.25 197.367188 475.332031 C 190.015625 493.085938 201.164062 511.042969 214.203125 517.992188 C 220.683594 521.445312 227.183594 524.511719 234.394531 525.566406 C 259.152344 529.226562 283.851562 532.941406 309.097656 529.734375 C 322.28125 528.066406 334.609375 525.121094 346.308594 518.519531 C 357.257812 512.324219 361.949219 503.386719 362.4375 491.316406 C 362.925781 479.3125 359.777344 468.140625 355.347656 457.230469 C 339.933594 419.304688 324.433594 381.417969 308.957031 343.53125 C 306.601562 337.761719 304.996094 337.070312 298.558594 339.9375 C 290.046875 343.734375 281.597656 347.128906 272.195312 342.964844 Z M 349.945312 287.425781 C 351.203125 287.425781 352.625 287.6875 353.925781 287.402344 C 379.761719 281.675781 405.597656 276.027344 431.375 269.996094 C 439.5 268.105469 447.480469 265.503906 455.320312 262.621094 C 469.742188 257.339844 480.160156 246.671875 489.039062 234.808594 C 500.1875 219.878906 502.503906 203.953125 491.070312 187.679688 C 487.554688 182.664062 484.246094 177.484375 481.097656 172.242188 C 466.53125 147.988281 447.214844 128.324219 424.265625 111.886719 C 416.40625 106.261719 408.605469 104.960938 399.953125 108.152344 C 395.300781 109.855469 390.710938 112.070312 386.507812 114.671875 C 377.183594 120.441406 371.558594 129.441406 366.539062 138.824219 C 353.886719 162.492188 345.050781 187.761719 335.421875 212.707031 C 327.601562 232.960938 320.351562 253.4375 312.898438 273.8125 C 312.652344 274.503906 312.855469 275.355469 312.855469 276.148438 C 339.546875 272.777344 339.546875 272.777344 349.945312 287.425781 Z M 297.136719 277.105469 C 298.070312 273.996094 298.863281 271.722656 299.410156 269.40625 C 305.339844 244.175781 311.128906 218.902344 317.144531 193.671875 C 321.550781 175.226562 326.445312 156.925781 330.710938 138.4375 C 333.085938 128.121094 334.773438 117.636719 336.457031 107.175781 C 339.078125 90.964844 328.191406 77.578125 311.78125 75.667969 C 290.636719 73.191406 269.511719 72.945312 248.429688 75.730469 C 237.683594 77.128906 226.859375 78.53125 216.925781 83.570312 C 204.863281 89.683594 198.910156 99.496094 197.914062 112.882812 C 197.0625 124.585938 199.539062 135.65625 203.519531 146.441406 C 213.617188 173.804688 227.46875 199.136719 244.671875 222.742188 C 253.183594 234.425781 261.347656 246.511719 266.078125 260.425781 C 267.398438 264.328125 269.816406 266.539062 274.042969 266.460938 C 280.214844 266.359375 285.335938 269.203125 290.351562 272.269531 C 292.402344 273.550781 294.292969 275.074219 297.136719 277.105469 Z M 255.539062 299.410156 C 256.289062 291.609375 257.222656 285.046875 257.386719 278.445312 C 257.449219 275.601562 256.472656 272.351562 254.949219 269.933594 C 251.273438 264.042969 247.273438 258.3125 242.945312 252.890625 C 226.714844 232.574219 214.691406 209.519531 200.453125 187.90625 C 190.949219 173.480469 181.949219 158.734375 172.363281 144.371094 C 164.480469 132.570312 149.230469 128.445312 136.1875 133.707031 C 128.144531 136.957031 122.253906 142.726562 116.769531 149.125 C 104.199219 163.851562 95.117188 180.855469 85.675781 197.574219 C 79.742188 208.078125 77 219.898438 75.558594 231.863281 C 74.402344 241.453125 78.726562 250.796875 85.898438 253.84375 C 91.484375 256.222656 97.453125 257.804688 103.34375 259.371094 C 110.597656 261.300781 118.03125 262.640625 125.28125 264.609375 C 161.84375 274.542969 198.339844 284.660156 234.902344 294.613281 C 241.542969 296.382812 248.328125 297.722656 255.539062 299.410156 Z M 255.539062 299.410156 " fill-opacity="1" fill-rule="nonzero"/><g clip-path="url(#751fbe67e2)"><path fill="#ffd246" d="M 11.578125 298.699219 C 11.539062 258.171875 21.550781 219.816406 36.257812 182.398438 C 44.28125 161.984375 55.511719 143.394531 67.617188 125.316406 C 71.617188 119.34375 76.878906 114.203125 81.589844 108.699219 C 106.65625 79.367188 137.691406 57.792969 171.734375 40.484375 C 200.617188 25.796875 231.328125 17.347656 263.84375 15.089844 C 297.988281 12.714844 332.050781 13.667969 365.28125 21.183594 C 411.367188 31.585938 452.984375 51.699219 488.226562 84.117188 C 518.164062 111.664062 541.746094 143.78125 560.351562 179.738281 C 562.910156 184.675781 565.285156 189.792969 567.035156 195.074219 C 575.523438 220.875 580.867188 247.179688 582.632812 274.421875 C 584.644531 305.058594 578.144531 334.207031 570.363281 363.339844 C 559.761719 403.074219 538.433594 437.382812 516.253906 471.289062 C 502.523438 492.292969 485.6875 510.332031 465.558594 525.285156 C 442.179688 542.632812 415.898438 554.007812 388.171875 562.195312 C 355.898438 571.742188 322.992188 577.734375 289.234375 575.886719 C 273.71875 575.03125 258.199219 572.433594 242.945312 569.34375 C 224.378906 565.585938 205.898438 561.179688 187.757812 555.796875 C 155.160156 546.125 126.765625 528.230469 100.664062 507.042969 C 61.484375 475.25 37.535156 433.363281 23.21875 385.441406 C 15.195312 358.605469 11.660156 327.238281 11.578125 298.699219 Z M 42.472656 307.210938 C 42.980469 318.058594 43.121094 328.945312 44.054688 339.753906 C 45.863281 360.738281 51.996094 380.707031 58.925781 400.511719 C 72.816406 440.328125 95.890625 473.402344 130.460938 497.921875 C 143.621094 507.265625 157.089844 516.386719 172.300781 522.238281 C 183.230469 526.441406 194.277344 530.363281 205.390625 534.039062 C 240.933594 545.863281 277.3125 552.039062 314.785156 547.730469 C 350.109375 543.667969 384.554688 535.804688 416.914062 520.367188 C 432.125 513.117188 446.28125 504.300781 457.394531 491.339844 C 466.105469 481.203125 474.292969 470.578125 483.433594 460.847656 C 499.132812 444.148438 510.710938 424.667969 520.132812 404.210938 C 541.707031 357.304688 551.496094 308.105469 546.417969 256.179688 C 544.183594 233.308594 538.070312 211.976562 527.609375 191.621094 C 517.636719 172.222656 506.890625 153.472656 492.46875 136.894531 C 480 122.554688 466.898438 108.902344 451.949219 97.203125 C 437.8125 86.128906 421.421875 78.816406 405.089844 71.644531 C 377.039062 59.316406 347.648438 51.699219 317.144531 49.382812 C 292.890625 47.53125 268.71875 49.992188 244.734375 53.871094 C 207.582031 59.882812 174.109375 73.675781 145.796875 99.171875 C 132.511719 111.117188 118.152344 121.78125 104.992188 133.789062 C 87.117188 150.058594 72.453125 168.6875 63.859375 191.867188 C 50.027344 229.121094 42.65625 267.433594 42.472656 307.210938 Z M 42.472656 307.210938 " fill-opacity="1" fill-rule="nonzero"/></g><path fill="#ffffff" d="M 296.546875 25.472656 C 318.992188 24.476562 341.027344 27.097656 362.902344 32.011719 C 386.203125 37.234375 408.28125 45.582031 429.179688 57.058594 C 431.78125 58.480469 434.15625 60.675781 435.945312 63.03125 C 436.859375 64.25 436.917969 67.054688 436.085938 68.355469 C 435.292969 69.636719 432.671875 70.792969 431.253906 70.449219 C 427.515625 69.554688 423.859375 68.070312 420.40625 66.34375 C 400.644531 56.472656 380.210938 48.730469 358.597656 43.671875 C 331.949219 37.417969 305.039062 36.378906 278.003906 37.355469 C 259.925781 38.003906 241.890625 40.363281 224.460938 45.804688 C 217.800781 47.878906 211.15625 49.96875 204.535156 52.125 C 201.246094 53.199219 197.894531 54.378906 195.761719 50.398438 C 194.238281 47.53125 196.027344 44.34375 201.023438 42.332031 C 209.023438 39.101562 217.148438 36.074219 225.417969 33.617188 C 246.96875 27.199219 269.046875 24.617188 291.507812 25.472656 C 293.195312 25.511719 294.882812 25.472656 296.546875 25.472656 Z M 296.546875 25.472656 " fill-opacity="1" fill-rule="nonzero"/><path fill="#ffffff" d="M 122.90625 302.496094 C 142.953125 303.695312 161.007812 307.210938 178.921875 311.433594 C 191.921875 314.523438 205.023438 317.386719 217.128906 323.480469 C 229.90625 329.902344 233.175781 344.566406 223.972656 355.539062 C 223.261719 356.390625 222.511719 357.570312 221.597656 357.8125 C 219.34375 358.363281 216.621094 359.253906 214.792969 358.421875 C 213.492188 357.832031 213.046875 354.726562 212.78125 352.671875 C 212.640625 351.433594 213.636719 350.074219 214.082031 348.773438 C 216.84375 340.628906 215.890625 337.316406 207.441406 334.878906 C 191.945312 330.386719 176.242188 326.46875 160.441406 323.199219 C 143.804688 319.765625 126.96875 317.40625 110.230469 314.460938 C 107.8125 314.035156 105.335938 313.121094 103.242188 311.839844 C 102.105469 311.128906 101.007812 309.039062 101.234375 307.800781 C 101.457031 306.621094 103.265625 305.035156 104.585938 304.832031 C 111.164062 303.777344 117.808594 303.105469 122.90625 302.496094 Z M 122.90625 302.496094 " fill-opacity="1" fill-rule="nonzero"/><path fill="#ffffff" d="M 547.617188 179.597656 C 546.132812 181.503906 544.914062 184.1875 542.84375 185.445312 C 539.878906 187.253906 537.621094 184.777344 535.9375 182.460938 C 534.980469 181.140625 534.332031 179.535156 533.742188 177.972656 C 527.527344 161.273438 517.25 146.992188 506.324219 133.238281 C 499.578125 124.769531 492.0625 116.824219 484.285156 109.246094 C 476.324219 101.488281 467.671875 94.4375 459.222656 87.207031 C 453.636719 82.433594 452.335938 79.914062 454.628906 77.152344 C 456.886719 74.429688 460.214844 74.46875 465.964844 78.1875 C 471.328125 81.660156 476.503906 85.5 481.460938 89.542969 C 498.441406 103.375 512.4375 120.015625 524.886719 137.871094 C 531.875 147.886719 537.644531 158.773438 543.714844 169.398438 C 545.359375 172.242188 546.132812 175.59375 547.617188 179.597656 Z M 547.617188 179.597656 " fill-opacity="1" fill-rule="nonzero"/><path fill="#ffffff" d="M 455.28125 174.191406 C 454.996094 174.71875 454.347656 177.402344 452.640625 178.742188 C 450.058594 180.773438 447.257812 179.148438 445.226562 177.054688 C 442.707031 174.476562 440.25 171.796875 438.117188 168.890625 C 428.164062 155.382812 412.890625 152.558594 397.738281 155.992188 C 392.050781 157.269531 387.726562 160.683594 384.394531 165.417969 C 383.742188 166.332031 383.234375 167.324219 382.648438 168.261719 C 380.574219 171.652344 378.5625 175.308594 373.648438 173.847656 C 370.480469 172.914062 369.078125 167.914062 370.90625 162.777344 C 373.285156 156.070312 377.425781 150.464844 383.480469 146.585938 C 402.167969 134.660156 432.265625 136.835938 448.109375 157.796875 C 451.480469 162.207031 455.890625 166.003906 455.28125 174.191406 Z M 455.28125 174.191406 " fill-opacity="1" fill-rule="nonzero"/><path fill="#ffffff" d="M 292.078125 367.054688 C 299.125 366.75 304.632812 369.617188 307.066406 376.460938 C 309.222656 382.433594 310.824219 388.671875 311.941406 394.90625 C 312.289062 396.777344 310.804688 400.066406 309.179688 400.980469 C 306.480469 402.503906 304.773438 399.761719 303.535156 397.527344 C 302.316406 395.355469 301.300781 393.058594 300.101562 390.84375 C 294.535156 380.644531 288.585938 379.46875 280.722656 388.203125 C 273.878906 395.800781 267.988281 404.3125 262.121094 412.722656 C 257.996094 418.632812 254.605469 425.054688 250.867188 431.25 C 250.441406 431.960938 250.136719 432.914062 249.503906 433.320312 C 247.738281 434.417969 245.015625 436.511719 244.101562 435.941406 C 242.375 434.863281 240.996094 432.285156 240.691406 430.152344 C 240.367188 427.816406 240.894531 425.03125 241.929688 422.898438 C 250.480469 405.367188 259.703125 388.242188 274.023438 374.53125 C 279.078125 369.695312 284.808594 366.691406 292.078125 367.054688 Z M 292.078125 367.054688 " fill-opacity="1" fill-rule="nonzero"/><path fill="#ffffff" d="M 216.316406 132.589844 C 215.828125 123.957031 219.730469 116.640625 224.726562 110.425781 C 237.683594 94.277344 255.558594 89.644531 275.421875 91.085938 C 278.835938 91.332031 282.003906 92.832031 282.796875 96.753906 C 283.425781 99.863281 281.027344 103.457031 276.621094 104.554688 C 270.710938 106.019531 264.578125 106.464844 258.585938 107.601562 C 246.359375 109.9375 236.992188 116.132812 232.140625 128.039062 C 230.3125 132.488281 229.050781 136.957031 230.980469 141.769531 C 232.242188 144.941406 231.957031 147.945312 228.667969 149.691406 C 225.394531 151.421875 222.796875 149.632812 220.542969 147.335938 C 217.210938 143.984375 216.195312 140.367188 216.316406 132.589844 Z M 216.316406 132.589844 " fill-opacity="1" fill-rule="nonzero"/><path fill="#ffffff" d="M 479.957031 351.230469 C 479.980469 346.78125 480.242188 342.3125 479.957031 337.882812 C 479.246094 326.609375 472.648438 319.765625 461.453125 319.234375 C 454.832031 318.929688 448.152344 319.601562 441.507812 319.867188 C 440.414062 319.90625 439.316406 320.292969 438.21875 320.292969 C 435.03125 320.332031 431.78125 319.867188 430.824219 316.269531 C 429.871094 312.652344 432.289062 310.359375 435.355469 309.28125 C 448.761719 304.550781 462.613281 302.152344 475.996094 308.183594 C 489.140625 314.117188 495.355469 325.757812 494.378906 339.101562 C 493.832031 346.722656 490.84375 354.195312 488.734375 361.671875 C 488.226562 363.480469 487.089844 365.246094 485.828125 366.667969 C 485.035156 367.5625 483.085938 368.539062 482.375 368.152344 C 481.175781 367.503906 479.855469 365.835938 479.777344 364.515625 C 479.472656 360.089844 479.675781 355.640625 479.695312 351.191406 C 479.796875 351.230469 479.878906 351.230469 479.957031 351.230469 Z M 479.957031 351.230469 " fill-opacity="1" fill-rule="nonzero"/><path fill="#ffffff" d="M 228.363281 274.464844 C 232.28125 265.769531 228.179688 259.777344 223.363281 254.089844 C 214.042969 243.078125 204.597656 232.167969 195.253906 221.179688 C 192.023438 217.378906 188.773438 213.5625 185.890625 209.5 C 183.960938 206.796875 183.65625 203.605469 186.582031 201.269531 C 189.203125 199.179688 191.84375 200.480469 194.21875 202.164062 C 195.113281 202.792969 195.964844 203.546875 196.714844 204.378906 C 208.476562 217.320312 220.398438 230.097656 231.875 243.28125 C 235.835938 247.832031 239.105469 253.152344 241.929688 258.515625 C 245.585938 265.464844 244.023438 272.898438 238.089844 278.101562 C 236.484375 279.5 233.359375 280.640625 231.632812 279.988281 C 230.007812 279.378906 229.335938 276.25 228.363281 274.464844 Z M 228.363281 274.464844 " fill-opacity="1" fill-rule="nonzero"/><path fill="#ffffff" d="M 328.820312 251.792969 C 326.019531 244.824219 327.929688 240.03125 329.675781 235.5625 C 332.5 228.351562 335.871094 221.300781 339.363281 214.375 C 343.242188 206.695312 347.445312 199.199219 351.710938 191.722656 C 353.214844 189.101562 355.003906 186.523438 357.136719 184.390625 C 359.390625 182.136719 362.355469 181.019531 365.402344 183.210938 C 367.980469 185.058594 368.46875 187.703125 367.65625 190.625 C 367.433594 191.417969 367.128906 192.210938 366.785156 192.960938 C 358.191406 212.015625 347.507812 229.851562 335.117188 246.652344 C 333.796875 248.480469 331.5625 249.617188 328.820312 251.792969 Z M 328.820312 251.792969 " fill-opacity="1" fill-rule="nonzero"/><path fill="#ffffff" d="M 148.4375 155.484375 C 154.734375 154.933594 161.234375 158.792969 166.289062 165.273438 C 169.011719 168.75 171.550781 172.464844 173.582031 176.367188 C 174.433594 178.011719 173.847656 180.429688 173.90625 182.480469 C 171.589844 182.460938 168.992188 183.128906 167.042969 182.277344 C 164.320312 181.097656 162.046875 178.84375 159.6875 176.914062 C 157.984375 175.511719 156.5 173.804688 154.8125 172.382812 C 151.359375 169.480469 147.359375 168.363281 143.175781 170.25 C 138.667969 172.304688 134.300781 174.679688 130.074219 177.257812 C 126.785156 179.292969 124.023438 182.195312 120.671875 184.085938 C 116.121094 186.664062 112.199219 183.902344 112.769531 178.660156 C 112.972656 176.792969 113.519531 174.597656 114.71875 173.277344 C 123.25 164.015625 132.226562 155.359375 148.4375 155.484375 Z M 148.4375 155.484375 " fill-opacity="1" fill-rule="nonzero"/><path fill="#ffffff" d="M 308.308594 163.566406 C 305.382812 156.578125 306.558594 149.671875 307.230469 142.910156 C 307.71875 137.929688 309.179688 133.054688 309.707031 128.078125 C 310.621094 119.261719 309.402344 111.277344 300.019531 107.074219 C 297.339844 105.875 295.164062 103.824219 296.140625 100.53125 C 297.15625 97.101562 300.121094 96.125 303.390625 96.023438 C 309.933594 95.820312 319.214844 102.707031 321.710938 109.855469 C 324.820312 118.773438 325.1875 127.917969 322.667969 136.976562 C 320.820312 143.679688 318.441406 150.261719 316.046875 156.804688 C 314.910156 159.890625 313.507812 163.101562 308.308594 163.566406 Z M 308.308594 163.566406 " fill-opacity="1" fill-rule="nonzero"/><path fill="#ffffff" d="M 409.722656 318.972656 C 409.964844 323.5625 406.796875 324.679688 404.054688 325.738281 C 400.703125 327.035156 397.167969 328.214844 393.636719 328.660156 C 382.625 330.003906 371.558594 331.019531 360.507812 332.054688 C 358.882812 332.21875 356.890625 332.296875 355.613281 331.507812 C 353.640625 330.308594 351 328.480469 350.796875 326.671875 C 350.617188 324.945312 352.769531 322.183594 354.617188 321.1875 C 357.21875 319.785156 360.425781 319.316406 363.453125 318.953125 C 373.386719 317.734375 383.335938 316.695312 393.289062 315.703125 C 399.140625 315.132812 404.785156 315.84375 409.722656 318.972656 Z M 409.722656 318.972656 " fill-opacity="1" fill-rule="nonzero"/><path fill="#ffffff" d="M 234.859375 175.917969 C 234.960938 172.160156 236.222656 169.460938 239.574219 168.421875 C 243.167969 167.324219 245.6875 169.277344 246.765625 172.425781 C 251.394531 185.792969 255.925781 199.199219 260.167969 212.707031 C 260.699219 214.355469 259.316406 216.609375 258.808594 218.578125 C 256.917969 217.828125 254.054688 217.605469 253.304688 216.222656 C 246.683594 204.074219 238.617188 192.578125 235.347656 178.804688 C 235.105469 177.726562 234.984375 176.628906 234.859375 175.917969 Z M 234.859375 175.917969 " fill-opacity="1" fill-rule="nonzero"/><path fill="#ffffff" d="M 567.136719 240.519531 C 566.648438 242.570312 566.484375 244.257812 565.855469 245.757812 C 564.148438 249.824219 560.574219 250.675781 558.382812 247.019531 C 556.046875 243.117188 554.601562 238.507812 553.75 234.019531 C 553.425781 232.332031 555.394531 229.425781 557.101562 228.328125 C 559.742188 226.664062 562.828125 227.921875 564.109375 230.644531 C 565.632812 233.835938 566.242188 237.429688 567.136719 240.519531 Z M 567.136719 240.519531 " fill-opacity="1" fill-rule="nonzero"/><path fill="#ffffff" d="M 94.734375 131.675781 C 90.832031 131.449219 88.78125 128.425781 90.019531 124.769531 C 91.484375 120.5 98.898438 115.261719 103.082031 116.09375 C 104.503906 116.378906 106.472656 118.347656 106.59375 119.6875 C 107.0625 124.382812 99.261719 131.917969 94.734375 131.675781 Z M 94.734375 131.675781 " fill-opacity="1" fill-rule="nonzero"/><path fill="#ffffff" d="M 557.121094 208.5625 C 555.945312 210.269531 554.929688 213.175781 552.917969 214.273438 C 549.808594 215.957031 547.921875 212.972656 546.601562 210.574219 C 545.5625 208.707031 544.710938 206.554688 544.449219 204.441406 C 544.082031 201.597656 544.75 198.773438 548.0625 197.878906 C 551.191406 197.027344 553.484375 198.589844 554.804688 201.292969 C 555.761719 203.242188 556.167969 205.457031 557.121094 208.5625 Z M 557.121094 208.5625 " fill-opacity="1" fill-rule="nonzero"/><path fill="#ffffff" d="M 167.710938 69.941406 C 164.175781 70.121094 161.660156 67.90625 161.679688 64.636719 C 161.699219 61.101562 165.578125 58.054688 170.65625 57.628906 C 173.765625 57.363281 176.285156 58.277344 176.8125 61.671875 C 177.300781 64.820312 171.691406 69.757812 167.710938 69.941406 Z M 167.710938 69.941406 " fill-opacity="1" fill-rule="nonzero"/><path fill="#ffffff" d="M 125.28125 99.78125 C 124.976562 104.371094 120.8125 108.375 117.035156 108.292969 C 113.949219 108.230469 111.753906 105.9375 111.957031 103.011719 C 112.222656 99.3125 116.667969 95.554688 120.730469 95.699219 C 123.675781 95.820312 125.320312 97.304688 125.28125 99.78125 Z M 125.28125 99.78125 " fill-opacity="1" fill-rule="nonzero"/><path fill="#ffffff" d="M 148.945312 80.96875 C 148.679688 85.417969 144.71875 89.523438 141.367188 89.15625 C 138.015625 88.792969 136.636719 86.476562 136.675781 83.347656 C 136.714844 79.792969 140.148438 77.027344 144.191406 77.128906 C 147.054688 77.191406 149.027344 78.308594 148.945312 80.96875 Z M 148.945312 80.96875 " fill-opacity="1" fill-rule="nonzero"/></svg>