<svg xmlns="http://www.w3.org/2000/svg" xmlns:xlink="http://www.w3.org/1999/xlink" width="940" zoomAndPan="magnify" viewBox="0 0 705 591.000005" height="788" preserveAspectRatio="xMidYMid meet" version="1.0"><defs><clipPath id="6bfd807af7"><path d="M 0.59375 0 L 704.402344 0 L 704.402344 590 L 0.59375 590 Z M 0.59375 0 " clip-rule="nonzero"/></clipPath><clipPath id="7987f93892"><path d="M 77 27 L 632 27 L 632 564 L 77 564 Z M 77 27 " clip-rule="nonzero"/></clipPath><clipPath id="c80784b22a"><path d="M 574.09375 -33.546875 L 652.613281 552.714844 L 122.007812 623.78125 L 43.484375 37.519531 Z M 574.09375 -33.546875 " clip-rule="nonzero"/></clipPath><clipPath id="14e0bf6446"><path d="M 574.09375 -33.546875 L 652.613281 552.714844 L 122.007812 623.78125 L 43.484375 37.519531 Z M 574.09375 -33.546875 " clip-rule="nonzero"/></clipPath><clipPath id="89c776effe"><path d="M 128 95 L 565 95 L 565 516 L 128 516 Z M 128 95 " clip-rule="nonzero"/></clipPath><clipPath id="3e483b88d9"><path d="M 574.09375 -33.546875 L 652.613281 552.714844 L 122.007812 623.78125 L 43.484375 37.519531 Z M 574.09375 -33.546875 " clip-rule="nonzero"/></clipPath><clipPath id="688ef62b30"><path d="M 574.09375 -33.546875 L 652.613281 552.714844 L 122.007812 623.78125 L 43.484375 37.519531 Z M 574.09375 -33.546875 " clip-rule="nonzero"/></clipPath><clipPath id="6e6322a26b"><path d="M 76 25 L 634 25 L 634 566 L 76 566 Z M 76 25 " clip-rule="nonzero"/></clipPath><clipPath id="0cb60188d8"><path d="M 574.09375 -33.546875 L 652.613281 552.714844 L 122.007812 623.78125 L 43.484375 37.519531 Z M 574.09375 -33.546875 " clip-rule="nonzero"/></clipPath><clipPath id="fd0cf2cf56"><path d="M 574.09375 -33.546875 L 652.613281 552.714844 L 122.007812 623.78125 L 43.484375 37.519531 Z M 574.09375 -33.546875 " clip-rule="nonzero"/></clipPath></defs><g clip-path="url(#6bfd807af7)"><path fill="none" d="M 0.59375 0 L 704.40625 0 L 704.40625 590 L 0.59375 590 Z M 0.59375 0 " fill-opacity="1" fill-rule="nonzero"/><path fill="none" d="M 0.59375 0 L 704.40625 0 L 704.40625 590 L 0.59375 590 Z M 0.59375 0 " fill-opacity="1" fill-rule="nonzero"/></g><g clip-path="url(#7987f93892)"><g clip-path="url(#c80784b22a)"><g clip-path="url(#14e0bf6446)"><path fill="#ffffff" d="M 171.347656 462.289062 C 213.101562 511.035156 270.726562 546.136719 334.816406 560.171875 C 425.152344 580.035156 546.21875 516.457031 624.710938 462.675781 C 629.394531 459.476562 630.640625 454.859375 629.808594 450.917969 C 630.359375 450.6875 630.863281 450.265625 631.363281 450.066406 L 627.34375 446.164062 C 626.824219 445.664062 626.363281 445.152344 625.804688 444.742188 L 195.257812 32.480469 C 194.445312 31.359375 193.472656 30.332031 192.226562 29.589844 L 192.109375 29.492188 L 192.144531 29.558594 C 187.925781 27.023438 181.867188 27.207031 177.574219 32.71875 C 118.824219 107.839844 66.625 194.558594 80.027344 286.613281 C 89.839844 354.574219 122.640625 417.210938 170.992188 463.035156 C 171.140625 462.746094 171.261719 462.566406 171.347656 462.289062 Z M 171.347656 462.289062 " fill-opacity="1" fill-rule="nonzero"/></g></g></g><g clip-path="url(#89c776effe)"><g clip-path="url(#3e483b88d9)"><g clip-path="url(#688ef62b30)"><path fill="#ffd246" d="M 231.8125 464.839844 C 202.078125 445.96875 188.710938 402.496094 219.167969 380.054688 C 243.808594 361.96875 269.1875 343.757812 294.183594 325.707031 C 308.871094 315.046875 348.199219 281.625 356.398438 278.285156 C 363.144531 269.503906 380.144531 267.640625 370.554688 290.777344 C 349.027344 342.6875 333.101562 396 309.664062 447.066406 C 293.453125 482.273438 261.550781 483.707031 231.8125 464.839844 Z M 342.4375 272.925781 C 364.972656 264.128906 352.769531 253.265625 342.246094 254.382812 C 334.578125 250.878906 285.667969 245.515625 268.671875 242.273438 C 239.859375 236.714844 210.734375 230.964844 182.085938 225.722656 C 146.636719 219.230469 124.136719 258.117188 129.664062 291.910156 C 135.269531 325.746094 156.628906 347.484375 192.042969 335.21875 C 243.402344 317.355469 291.609375 292.652344 342.4375 272.925781 Z M 436.585938 458.5 C 425.035156 405.402344 406.382812 354.5625 392.953125 301.746094 C 386.964844 278.308594 374.699219 289.0625 374.550781 299.667969 C 370.164062 306.867188 358.871094 354.738281 353.609375 371.226562 C 344.589844 399.140625 335.375 427.410156 326.679688 455.199219 C 315.957031 489.5625 351.792969 516.632812 386.042969 515.207031 C 420.3125 513.765625 444.503906 495.164062 436.585938 458.5 Z M 405.390625 300.867188 C 405.878906 309.234375 424.183594 354.953125 429.316406 371.457031 C 437.96875 399.515625 446.683594 427.878906 455.519531 455.664062 C 466.519531 489.988281 511.351562 491.523438 538.558594 470.691406 C 565.832031 449.882812 574.855469 420.746094 547.386719 395.261719 C 507.414062 358.347656 462.945312 327.519531 421.648438 291.945312 C 403.230469 276.195312 399.433594 292.113281 405.390625 300.867188 Z M 350.679688 219.632812 C 346.277344 212.441406 308.585938 180.847656 296.164062 168.757812 C 275.332031 148.136719 254.242188 127.222656 233.300781 106.921875 C 207.433594 81.929688 167.144531 101.746094 153.042969 133.015625 C 138.882812 164.222656 144.65625 194.136719 180.949219 203.585938 C 233.589844 217.273438 287.371094 223.40625 340.566406 235.125 C 364.242188 240.320312 360.074219 224.539062 350.679688 219.632812 Z M 350.679688 219.632812 " fill-opacity="1" fill-rule="nonzero"/></g></g></g><g clip-path="url(#6e6322a26b)"><g clip-path="url(#0cb60188d8)"><g clip-path="url(#fd0cf2cf56)"><path fill="#e2d8a2" d="M 171.484375 462.457031 C 171.386719 462.707031 171.253906 462.882812 171.167969 463.160156 C 122.183594 416.742188 88.785156 353.488281 78.421875 285.078125 C 64.367188 192.28125 116.285156 105.386719 174.9375 30.164062 C 183.890625 18.667969 200.65625 30.066406 191.703125 41.53125 C 138.160156 110.21875 95.601562 180.921875 98.375 265.816406 C 100.652344 335.132812 184.832031 448.601562 188.917969 446.125 C 231.382812 496.339844 288.488281 536.261719 357.136719 543.328125 C 441.140625 552.015625 545.691406 497.125 617.605469 448.121094 C 629.59375 439.914062 639.683594 457.570312 627.699219 465.777344 C 549.027344 519.363281 427.695312 582.542969 336.609375 562.019531 C 272.011719 547.53125 213.808594 511.789062 171.484375 462.457031 Z M 171.484375 462.457031 " fill-opacity="1" fill-rule="nonzero"/></g></g></g></svg>