<!-- <svg xmlns="http://www.w3.org/2000/svg" xmlns:xlink="http://www.w3.org/1999/xlink" width="940" zoomAndPan="magnify" viewBox="0 0 705 591.000005" height="788" preserveAspectRatio="xMidYMid meet" version="1.0"><defs><clipPath id="027a4ca107"><path d="M 18 56 L 677 56 L 677 546 L 18 546 Z M 18 56 " clip-rule="nonzero"/></clipPath><clipPath id="eb79e61bcb"><path d="M 382.855469 -224.644531 L 808.703125 280.09375 L 360.046875 658.625 L -65.800781 153.886719 Z M 382.855469 -224.644531 " clip-rule="nonzero"/></clipPath><clipPath id="b0e01d2719"><path d="M 382.855469 -224.644531 L 808.703125 280.09375 L 360.046875 658.625 L -65.800781 153.886719 Z M 382.855469 -224.644531 " clip-rule="nonzero"/></clipPath></defs><g clip-path="url(#027a4ca107)"><g clip-path="url(#eb79e61bcb)"><g clip-path="url(#b0e01d2719)"><path fill="#f4ebe6" d="M 637.121094 84.371094 C 618.023438 69.269531 604.679688 61.007812 584.460938 58.566406 C 521.304688 49.402344 488.488281 71.882812 420.191406 81.394531 C 332.199219 94.488281 311.199219 83.59375 231.746094 71.285156 C 221.839844 69.230469 213.207031 68.707031 203.953125 67.421875 C 129.726562 55.910156 24.3125 78.496094 18.632812 166.535156 C 17.949219 184.03125 19.484375 200.933594 24.246094 221.640625 C 28.886719 241.136719 31.828125 260.773438 53.796875 276.058594 C 69.050781 286.609375 88.980469 291.902344 105.601562 298.699219 C 123.40625 305.800781 141.734375 312.441406 158.378906 325.707031 C 174.382812 338.214844 194.574219 358.921875 204.847656 377.5625 C 226.042969 415.617188 223.753906 496.894531 300.082031 531.363281 C 405.613281 578.910156 437.054688 491.238281 523.300781 465.304688 C 554.992188 455.480469 609.148438 447.511719 630.515625 406.0625 C 644.691406 379.785156 639.527344 360.738281 639.90625 346.101562 C 640.304688 337.957031 646.40625 348.429688 641.652344 327.710938 C 639.707031 318.941406 641.945312 287.140625 646.375 272.992188 C 649.003906 264.269531 653.453125 256.613281 658.84375 246.855469 C 680.65625 210.234375 678.542969 180.804688 670.203125 139.710938 C 665.238281 116.585938 658.164062 101.734375 637.132812 84.363281 Z M 637.121094 84.371094 " fill-opacity="1" fill-rule="evenodd"/></g></g></g></svg> -->

<svg xmlns="http://www.w3.org/2000/svg" version="1.1" xmlns:xlink="http://www.w3.org/1999/xlink" xmlns:svgjs="http://svgjs.dev/svgjs" viewBox="0 0 600 600"><path d="M186.91099548339844,60.4712028503418C122.38220087687175,106.80627950032553,67.80105082194011,306.15181668599445,91.88481903076172,385.6020812988281C115.96858723958333,465.0523459116618,255.62826410929364,547.5131022135416,331.4136047363281,537.1727905273438C407.1989453633626,526.8324788411459,521.9895324707031,395.15707270304364,546.5968627929688,323.5602111816406C571.2041931152344,251.9633496602376,539.005231221517,151.43978945414224,479.0575866699219,107.59162139892578C419.10994211832684,63.74345334370931,251.4397900899251,14.13612620035807,186.91099548339844,60.4712028503418C122.38220087687175,106.80627950032553,67.80105082194011,306.15181668599445,91.88481903076172,385.6020812988281" fill="#f4ebe6" transform="matrix(1.1547309375,0,0,1.1547309375,-70.08775912938597,-34.833481431076564)"></path></svg>