<svg xmlns="http://www.w3.org/2000/svg" xmlns:xlink="http://www.w3.org/1999/xlink" width="150" zoomAndPan="magnify" viewBox="0 0 252 119.999999" height="72" preserveAspectRatio="xMidYMid meet" version="1.0"><defs><g/><clipPath id="905ca53b65"><path d="M 107 62 L 146 62 L 146 88 L 107 88 Z M 107 62 " clip-rule="nonzero"/></clipPath><clipPath id="e615f2ed41"><path d="M 134.949219 101.199219 L 102.078125 84.765625 L 116.832031 55.25 L 149.703125 71.679688 Z M 134.949219 101.199219 " clip-rule="nonzero"/></clipPath><clipPath id="bfd9a14b3a"><path d="M 134.949219 101.199219 L 102.078125 84.765625 L 116.832031 55.25 L 149.703125 71.679688 Z M 134.949219 101.199219 " clip-rule="nonzero"/></clipPath><clipPath id="7134f86136"><path d="M 110 65 L 142 65 L 142 85 L 110 85 Z M 110 65 " clip-rule="nonzero"/></clipPath><clipPath id="ef90ca07b4"><path d="M 134.949219 101.199219 L 102.078125 84.765625 L 116.832031 55.25 L 149.703125 71.679688 Z M 134.949219 101.199219 " clip-rule="nonzero"/></clipPath><clipPath id="1cea66887c"><path d="M 134.949219 101.199219 L 102.078125 84.765625 L 116.832031 55.25 L 149.703125 71.679688 Z M 134.949219 101.199219 " clip-rule="nonzero"/></clipPath><clipPath id="ca2fda1e1c"><path d="M 107 62 L 146 62 L 146 88 L 107 88 Z M 107 62 " clip-rule="nonzero"/></clipPath><clipPath id="cee3271fbc"><path d="M 134.949219 101.199219 L 102.078125 84.765625 L 116.832031 55.25 L 149.703125 71.679688 Z M 134.949219 101.199219 " clip-rule="nonzero"/></clipPath><clipPath id="72ccf1c675"><path d="M 134.949219 101.199219 L 102.078125 84.765625 L 116.832031 55.25 L 149.703125 71.679688 Z M 134.949219 101.199219 " clip-rule="nonzero"/></clipPath><clipPath id="fd85959419"><path d="M 145 62 L 184 62 L 184 88 L 145 88 Z M 145 62 " clip-rule="nonzero"/></clipPath><clipPath id="c588659192"><path d="M 172.691406 101.199219 L 139.820312 84.765625 L 154.578125 55.25 L 187.449219 71.679688 Z M 172.691406 101.199219 " clip-rule="nonzero"/></clipPath><clipPath id="c24cc06081"><path d="M 172.691406 101.199219 L 139.820312 84.765625 L 154.578125 55.25 L 187.449219 71.679688 Z M 172.691406 101.199219 " clip-rule="nonzero"/></clipPath><clipPath id="94483846ad"><path d="M 148 65 L 180 65 L 180 85 L 148 85 Z M 148 65 " clip-rule="nonzero"/></clipPath><clipPath id="a10196c903"><path d="M 172.691406 101.199219 L 139.820312 84.765625 L 154.578125 55.25 L 187.449219 71.679688 Z M 172.691406 101.199219 " clip-rule="nonzero"/></clipPath><clipPath id="14ef915f14"><path d="M 172.691406 101.199219 L 139.820312 84.765625 L 154.578125 55.25 L 187.449219 71.679688 Z M 172.691406 101.199219 " clip-rule="nonzero"/></clipPath><clipPath id="fe37b7ea3b"><path d="M 145 62 L 184 62 L 184 88 L 145 88 Z M 145 62 " clip-rule="nonzero"/></clipPath><clipPath id="30c3d4ff95"><path d="M 172.691406 101.199219 L 139.820312 84.765625 L 154.578125 55.25 L 187.449219 71.679688 Z M 172.691406 101.199219 " clip-rule="nonzero"/></clipPath><clipPath id="4a577e051c"><path d="M 172.691406 101.199219 L 139.820312 84.765625 L 154.578125 55.25 L 187.449219 71.679688 Z M 172.691406 101.199219 " clip-rule="nonzero"/></clipPath></defs><g fill="#b0a4d6" fill-opacity="1"><g transform="translate(-0.0946115, 101.0949)"><g><path d="M 26.4375 -20.125 C 28.5625 -18.132812 29.804688 -16.015625 30.171875 -13.765625 C 30.546875 -11.523438 30.117188 -9.429688 28.890625 -7.484375 C 27.671875 -5.546875 25.695312 -4.066406 22.96875 -3.046875 C 21.664062 -2.546875 20.296875 -2.144531 18.859375 -1.84375 C 17.429688 -1.539062 16.046875 -1.4375 14.703125 -1.53125 C 13.453125 -1.625 12.191406 -1.910156 10.921875 -2.390625 C 9.648438 -2.878906 8.460938 -3.46875 7.359375 -4.15625 C 6.054688 -4.988281 5.234375 -6.085938 4.890625 -7.453125 C 4.546875 -8.816406 4.628906 -10.078125 5.140625 -11.234375 C 5.640625 -12.347656 6.476562 -13.160156 7.65625 -13.671875 C 8.84375 -14.179688 10.222656 -14.34375 11.796875 -14.15625 C 12.898438 -14.007812 13.992188 -13.890625 15.078125 -13.796875 C 16.171875 -13.710938 17.25 -13.625 18.3125 -13.53125 C 18.363281 -13.664062 18.410156 -13.800781 18.453125 -13.9375 C 18.492188 -14.082031 18.539062 -14.25 18.59375 -14.4375 C 17.757812 -14.707031 16.914062 -14.976562 16.0625 -15.25 C 15.207031 -15.53125 14.382812 -15.859375 13.59375 -16.234375 C 12.207031 -16.929688 10.820312 -17.601562 9.4375 -18.25 C 8.050781 -18.894531 6.800781 -19.703125 5.6875 -20.671875 C 3.882812 -22.203125 2.867188 -24.003906 2.640625 -26.078125 C 2.410156 -28.160156 2.828125 -30.242188 3.890625 -32.328125 C 4.953125 -34.359375 6.5 -36.046875 8.53125 -37.390625 C 10.5625 -38.734375 12.769531 -39.632812 15.15625 -40.09375 C 17.539062 -40.5625 19.816406 -40.445312 21.984375 -39.75 C 23.648438 -39.238281 25.015625 -38.441406 26.078125 -37.359375 C 27.148438 -36.273438 27.773438 -34.875 27.953125 -33.15625 C 28.046875 -32.46875 27.960938 -31.726562 27.703125 -30.9375 C 27.453125 -30.15625 27.097656 -29.484375 26.640625 -28.921875 C 26.085938 -28.234375 25.414062 -27.976562 24.625 -28.15625 C 23.84375 -28.34375 23.082031 -28.625 22.34375 -29 C 20.675781 -29.925781 19.179688 -30.269531 17.859375 -30.03125 C 16.546875 -29.800781 15.265625 -28.945312 14.015625 -27.46875 C 14.617188 -27.195312 15.171875 -26.941406 15.671875 -26.703125 C 16.179688 -26.472656 16.671875 -26.222656 17.140625 -25.953125 C 18.710938 -25.023438 20.328125 -24.117188 21.984375 -23.234375 C 23.648438 -22.359375 25.132812 -21.320312 26.4375 -20.125 Z M 26.4375 -20.125 "/></g></g></g><g fill="#b0a4d6" fill-opacity="1"><g transform="translate(32.862083, 101.0949)"><g><path d="M 41.90625 0.625 C 41.945312 1.082031 41.804688 1.632812 41.484375 2.28125 C 41.160156 2.9375 40.789062 3.378906 40.375 3.609375 C 38.519531 4.628906 36.957031 5.878906 35.6875 7.359375 C 34.414062 8.835938 33.316406 10.5 32.390625 12.34375 C 31.234375 14.75 29.269531 15.742188 26.5 15.328125 C 25.25 15.191406 24.160156 14.671875 23.234375 13.765625 C 22.316406 12.867188 21.859375 11.75 21.859375 10.40625 C 21.804688 8.414062 21.875 6.414062 22.0625 4.40625 C 22.25 2.394531 22.410156 0.394531 22.546875 -1.59375 C 22.546875 -2.101562 22.578125 -2.625 22.640625 -3.15625 C 22.710938 -3.6875 22.773438 -4.273438 22.828125 -4.921875 C 22.503906 -4.878906 22.210938 -4.832031 21.953125 -4.78125 C 21.703125 -4.738281 21.484375 -4.671875 21.296875 -4.578125 C 18.523438 -3.460938 15.921875 -3.207031 13.484375 -3.8125 C 11.054688 -4.414062 8.78125 -5.617188 6.65625 -7.421875 C 4.625 -9.128906 3.375 -11.09375 2.90625 -13.3125 C 2.445312 -15.539062 2.492188 -17.898438 3.046875 -20.390625 C 4.203125 -25.578125 6.457031 -29.3125 9.8125 -31.59375 C 13.164062 -33.882812 17.523438 -34.640625 22.890625 -33.859375 C 23.265625 -33.804688 23.679688 -33.835938 24.140625 -33.953125 C 24.609375 -34.066406 24.929688 -34.265625 25.109375 -34.546875 C 25.847656 -35.378906 26.632812 -35.96875 27.46875 -36.3125 C 28.300781 -36.664062 29.25 -36.679688 30.3125 -36.359375 C 31.375 -35.984375 32.160156 -35.390625 32.671875 -34.578125 C 33.179688 -33.773438 33.484375 -32.863281 33.578125 -31.84375 C 33.671875 -30.550781 33.75 -29.242188 33.8125 -27.921875 C 33.882812 -26.609375 33.945312 -25.300781 34 -24 C 34.082031 -20.757812 34.171875 -17.519531 34.265625 -14.28125 C 34.359375 -11.050781 34.453125 -7.816406 34.546875 -4.578125 C 34.546875 -4.253906 34.566406 -3.941406 34.609375 -3.640625 C 34.660156 -3.335938 34.707031 -3.050781 34.75 -2.78125 C 35.582031 -2.632812 36.40625 -2.535156 37.21875 -2.484375 C 38.03125 -2.441406 38.78125 -2.285156 39.46875 -2.015625 C 39.976562 -1.785156 40.472656 -1.414062 40.953125 -0.90625 C 41.441406 -0.394531 41.757812 0.113281 41.90625 0.625 Z M 19.015625 -15.40625 C 20.535156 -16.5625 21.609375 -17.984375 22.234375 -19.671875 C 22.859375 -21.359375 23.332031 -23.125 23.65625 -24.96875 C 17.96875 -25.707031 14.707031 -23.488281 13.875 -18.3125 C 13.738281 -17.570312 13.738281 -16.863281 13.875 -16.1875 C 14.007812 -15.519531 14.472656 -15.070312 15.265625 -14.84375 C 15.816406 -14.707031 16.460938 -14.6875 17.203125 -14.78125 C 17.941406 -14.875 18.546875 -15.082031 19.015625 -15.40625 Z M 19.015625 -15.40625 "/></g></g></g><g fill="#b0a4d6" fill-opacity="1"><g transform="translate(72.479486, 101.0949)"><g><path d="M 34.0625 -11.71875 C 34.4375 -10.144531 34.414062 -8.789062 34 -7.65625 C 33.582031 -6.53125 32.816406 -5.734375 31.703125 -5.265625 C 29.390625 -4.347656 27.351562 -5.367188 25.59375 -8.328125 C 25.550781 -8.367188 25.503906 -8.425781 25.453125 -8.5 C 25.410156 -8.570312 25.34375 -8.648438 25.25 -8.734375 C 24.375 -8.140625 23.53125 -7.539062 22.71875 -6.9375 C 21.90625 -6.332031 21.082031 -5.800781 20.25 -5.34375 C 18.175781 -4.28125 16.109375 -3.796875 14.046875 -3.890625 C 11.992188 -3.984375 10.144531 -4.609375 8.5 -5.765625 C 6.851562 -6.921875 5.566406 -8.5625 4.640625 -10.6875 C 3.078125 -14.425781 2.394531 -18.15625 2.59375 -21.875 C 2.800781 -25.601562 3.648438 -29.316406 5.140625 -33.015625 C 5.460938 -33.804688 5.945312 -34.457031 6.59375 -34.96875 C 7.238281 -35.476562 8.046875 -35.640625 9.015625 -35.453125 C 10.078125 -35.265625 10.789062 -34.8125 11.15625 -34.09375 C 11.53125 -33.375 11.742188 -32.53125 11.796875 -31.5625 C 11.890625 -30.21875 11.945312 -28.851562 11.96875 -27.46875 C 11.988281 -26.082031 12.066406 -24.695312 12.203125 -23.3125 C 12.347656 -22.25 12.523438 -21.171875 12.734375 -20.078125 C 12.941406 -18.992188 13.207031 -17.921875 13.53125 -16.859375 C 13.894531 -15.648438 14.410156 -14.988281 15.078125 -14.875 C 15.753906 -14.757812 16.460938 -15.210938 17.203125 -16.234375 C 17.804688 -17.066406 18.328125 -17.976562 18.765625 -18.96875 C 19.203125 -19.96875 19.5625 -20.953125 19.84375 -21.921875 C 20.394531 -23.816406 20.878906 -25.734375 21.296875 -27.671875 C 21.710938 -29.617188 22.148438 -31.539062 22.609375 -33.4375 C 22.984375 -34.726562 23.65625 -35.707031 24.625 -36.375 C 25.59375 -37.050781 26.679688 -37.320312 27.890625 -37.1875 C 29.140625 -37 30.144531 -36.460938 30.90625 -35.578125 C 31.664062 -34.703125 32.09375 -33.597656 32.1875 -32.265625 C 32.1875 -32.023438 32.1875 -31.789062 32.1875 -31.5625 C 32.1875 -31.332031 32.164062 -31.101562 32.125 -30.875 C 31.65625 -27.59375 31.675781 -24.363281 32.1875 -21.1875 C 32.695312 -18.019531 33.320312 -14.863281 34.0625 -11.71875 Z M 34.0625 -11.71875 "/></g></g></g><g fill="#b0a4d6" fill-opacity="1"><g transform="translate(109.390984, 101.0949)"><g><path d="M 29.90625 -33.578125 C 31.65625 -31.773438 32.671875 -29.820312 32.953125 -27.71875 C 33.234375 -25.613281 32.816406 -23.671875 31.703125 -21.890625 C 30.597656 -20.109375 28.863281 -18.800781 26.5 -17.96875 C 24.601562 -17.320312 22.625 -16.867188 20.5625 -16.609375 C 18.507812 -16.359375 16.394531 -16.023438 14.21875 -15.609375 C 14.863281 -15.421875 15.488281 -15.222656 16.09375 -15.015625 C 16.695312 -14.804688 17.300781 -14.65625 17.90625 -14.5625 C 19.101562 -14.332031 20.3125 -14.160156 21.53125 -14.046875 C 22.757812 -13.929688 23.953125 -13.6875 25.109375 -13.3125 C 26.773438 -12.757812 27.78125 -11.820312 28.125 -10.5 C 28.476562 -9.1875 28.03125 -7.90625 26.78125 -6.65625 C 26.132812 -5.96875 25.320312 -5.359375 24.34375 -4.828125 C 23.375 -4.296875 22.425781 -3.984375 21.5 -3.890625 C 17.25 -3.472656 13.664062 -4.015625 10.75 -5.515625 C 7.832031 -7.015625 5.679688 -9.148438 4.296875 -11.921875 C 2.910156 -14.703125 2.359375 -17.804688 2.640625 -21.234375 C 2.816406 -23.359375 3.179688 -25.398438 3.734375 -27.359375 C 4.296875 -29.328125 5.175781 -31.210938 6.375 -33.015625 C 7.90625 -35.378906 9.875 -37.082031 12.28125 -38.125 C 14.6875 -39.164062 17.273438 -39.40625 20.046875 -38.84375 C 23.984375 -38.15625 27.269531 -36.398438 29.90625 -33.578125 Z M 23.796875 -26.921875 C 23.890625 -26.921875 23.992188 -26.953125 24.109375 -27.015625 C 24.222656 -27.085938 24.375 -27.171875 24.5625 -27.265625 C 23.675781 -28.515625 22.570312 -29.40625 21.25 -29.9375 C 19.9375 -30.46875 18.703125 -30.570312 17.546875 -30.25 C 16.484375 -29.925781 15.695312 -29.378906 15.1875 -28.609375 C 14.6875 -27.847656 14.296875 -26.9375 14.015625 -25.875 C 15.722656 -26.0625 17.382812 -26.234375 19 -26.390625 C 20.625 -26.554688 22.222656 -26.734375 23.796875 -26.921875 Z M 23.796875 -26.921875 "/></g></g></g><g fill="#b0a4d6" fill-opacity="1"><g transform="translate(145.053584, 101.0949)"><g><path d="M 29.90625 -33.578125 C 31.65625 -31.773438 32.671875 -29.820312 32.953125 -27.71875 C 33.234375 -25.613281 32.816406 -23.671875 31.703125 -21.890625 C 30.597656 -20.109375 28.863281 -18.800781 26.5 -17.96875 C 24.601562 -17.320312 22.625 -16.867188 20.5625 -16.609375 C 18.507812 -16.359375 16.394531 -16.023438 14.21875 -15.609375 C 14.863281 -15.421875 15.488281 -15.222656 16.09375 -15.015625 C 16.695312 -14.804688 17.300781 -14.65625 17.90625 -14.5625 C 19.101562 -14.332031 20.3125 -14.160156 21.53125 -14.046875 C 22.757812 -13.929688 23.953125 -13.6875 25.109375 -13.3125 C 26.773438 -12.757812 27.78125 -11.820312 28.125 -10.5 C 28.476562 -9.1875 28.03125 -7.90625 26.78125 -6.65625 C 26.132812 -5.96875 25.320312 -5.359375 24.34375 -4.828125 C 23.375 -4.296875 22.425781 -3.984375 21.5 -3.890625 C 17.25 -3.472656 13.664062 -4.015625 10.75 -5.515625 C 7.832031 -7.015625 5.679688 -9.148438 4.296875 -11.921875 C 2.910156 -14.703125 2.359375 -17.804688 2.640625 -21.234375 C 2.816406 -23.359375 3.179688 -25.398438 3.734375 -27.359375 C 4.296875 -29.328125 5.175781 -31.210938 6.375 -33.015625 C 7.90625 -35.378906 9.875 -37.082031 12.28125 -38.125 C 14.6875 -39.164062 17.273438 -39.40625 20.046875 -38.84375 C 23.984375 -38.15625 27.269531 -36.398438 29.90625 -33.578125 Z M 23.796875 -26.921875 C 23.890625 -26.921875 23.992188 -26.953125 24.109375 -27.015625 C 24.222656 -27.085938 24.375 -27.171875 24.5625 -27.265625 C 23.675781 -28.515625 22.570312 -29.40625 21.25 -29.9375 C 19.9375 -30.46875 18.703125 -30.570312 17.546875 -30.25 C 16.484375 -29.925781 15.695312 -29.378906 15.1875 -28.609375 C 14.6875 -27.847656 14.296875 -26.9375 14.015625 -25.875 C 15.722656 -26.0625 17.382812 -26.234375 19 -26.390625 C 20.625 -26.554688 22.222656 -26.734375 23.796875 -26.921875 Z M 23.796875 -26.921875 "/></g></g></g><g fill="#b0a4d6" fill-opacity="1"><g transform="translate(180.716185, 101.0949)"><g><path d="M 28.65625 -12.828125 C 29.988281 -12.503906 31.046875 -11.878906 31.828125 -10.953125 C 32.617188 -10.035156 33.015625 -9.019531 33.015625 -7.90625 C 33.066406 -6.84375 32.695312 -5.835938 31.90625 -4.890625 C 31.125 -3.941406 30.085938 -3.257812 28.796875 -2.84375 C 28.472656 -2.707031 28.132812 -2.59375 27.78125 -2.5 C 27.4375 -2.40625 27.078125 -2.335938 26.703125 -2.296875 C 24.304688 -2.109375 21.890625 -1.910156 19.453125 -1.703125 C 17.023438 -1.492188 14.585938 -1.316406 12.140625 -1.171875 C 11.441406 -1.128906 10.734375 -1.175781 10.015625 -1.3125 C 9.304688 -1.457031 8.628906 -1.644531 7.984375 -1.875 C 6.222656 -2.425781 4.867188 -3.335938 3.921875 -4.609375 C 2.972656 -5.878906 2.519531 -7.300781 2.5625 -8.875 C 2.613281 -10.445312 3.21875 -11.953125 4.375 -13.390625 C 5.53125 -14.773438 6.773438 -16.066406 8.109375 -17.265625 C 9.453125 -18.472656 10.773438 -19.722656 12.078125 -21.015625 C 12.859375 -21.753906 13.628906 -22.503906 14.390625 -23.265625 C 15.160156 -24.035156 15.9375 -24.789062 16.71875 -25.53125 C 16.625 -25.664062 16.53125 -25.875 16.4375 -26.15625 C 15.65625 -26.15625 14.878906 -26.15625 14.109375 -26.15625 C 13.347656 -26.15625 12.578125 -26.175781 11.796875 -26.21875 C 11.097656 -26.269531 10.378906 -26.304688 9.640625 -26.328125 C 8.898438 -26.347656 8.253906 -26.519531 7.703125 -26.84375 C 7.054688 -27.257812 6.429688 -27.789062 5.828125 -28.4375 C 5.222656 -29.09375 4.875 -29.765625 4.78125 -30.453125 C 4.6875 -31.097656 4.835938 -31.828125 5.234375 -32.640625 C 5.628906 -33.453125 6.082031 -34.113281 6.59375 -34.625 C 7.144531 -35.125 7.8125 -35.535156 8.59375 -35.859375 C 9.382812 -36.191406 10.148438 -36.359375 10.890625 -36.359375 C 12.921875 -36.441406 14.96875 -36.492188 17.03125 -36.515625 C 19.09375 -36.546875 21.117188 -36.375 23.109375 -36 C 25.046875 -35.632812 26.59375 -34.78125 27.75 -33.4375 C 28.90625 -32.09375 29.5625 -30.519531 29.71875 -28.71875 C 29.882812 -26.914062 29.457031 -25.160156 28.4375 -23.453125 C 27.976562 -22.566406 27.445312 -21.726562 26.84375 -20.9375 C 26.25 -20.15625 25.648438 -19.375 25.046875 -18.59375 C 24.441406 -17.851562 23.800781 -17.085938 23.125 -16.296875 C 22.457031 -15.515625 21.734375 -14.640625 20.953125 -13.671875 C 21.554688 -13.617188 22.078125 -13.582031 22.515625 -13.5625 C 22.953125 -13.539062 23.351562 -13.503906 23.71875 -13.453125 C 24.550781 -13.359375 25.382812 -13.289062 26.21875 -13.25 C 27.050781 -13.207031 27.863281 -13.066406 28.65625 -12.828125 Z M 28.65625 -12.828125 "/></g></g></g><g fill="#b0a4d6" fill-opacity="1"><g transform="translate(216.378785, 101.0949)"><g><path d="M 29.90625 -33.578125 C 31.65625 -31.773438 32.671875 -29.820312 32.953125 -27.71875 C 33.234375 -25.613281 32.816406 -23.671875 31.703125 -21.890625 C 30.597656 -20.109375 28.863281 -18.800781 26.5 -17.96875 C 24.601562 -17.320312 22.625 -16.867188 20.5625 -16.609375 C 18.507812 -16.359375 16.394531 -16.023438 14.21875 -15.609375 C 14.863281 -15.421875 15.488281 -15.222656 16.09375 -15.015625 C 16.695312 -14.804688 17.300781 -14.65625 17.90625 -14.5625 C 19.101562 -14.332031 20.3125 -14.160156 21.53125 -14.046875 C 22.757812 -13.929688 23.953125 -13.6875 25.109375 -13.3125 C 26.773438 -12.757812 27.78125 -11.820312 28.125 -10.5 C 28.476562 -9.1875 28.03125 -7.90625 26.78125 -6.65625 C 26.132812 -5.96875 25.320312 -5.359375 24.34375 -4.828125 C 23.375 -4.296875 22.425781 -3.984375 21.5 -3.890625 C 17.25 -3.472656 13.664062 -4.015625 10.75 -5.515625 C 7.832031 -7.015625 5.679688 -9.148438 4.296875 -11.921875 C 2.910156 -14.703125 2.359375 -17.804688 2.640625 -21.234375 C 2.816406 -23.359375 3.179688 -25.398438 3.734375 -27.359375 C 4.296875 -29.328125 5.175781 -31.210938 6.375 -33.015625 C 7.90625 -35.378906 9.875 -37.082031 12.28125 -38.125 C 14.6875 -39.164062 17.273438 -39.40625 20.046875 -38.84375 C 23.984375 -38.15625 27.269531 -36.398438 29.90625 -33.578125 Z M 23.796875 -26.921875 C 23.890625 -26.921875 23.992188 -26.953125 24.109375 -27.015625 C 24.222656 -27.085938 24.375 -27.171875 24.5625 -27.265625 C 23.675781 -28.515625 22.570312 -29.40625 21.25 -29.9375 C 19.9375 -30.46875 18.703125 -30.570312 17.546875 -30.25 C 16.484375 -29.925781 15.695312 -29.378906 15.1875 -28.609375 C 14.6875 -27.847656 14.296875 -26.9375 14.015625 -25.875 C 15.722656 -26.0625 17.382812 -26.234375 19 -26.390625 C 20.625 -26.554688 22.222656 -26.734375 23.796875 -26.921875 Z M 23.796875 -26.921875 "/></g></g></g><g fill="#b0a4d6" fill-opacity="1"><g transform="translate(48.718729, 40.429101)"><g><path d="M 17.59375 -32.875 C 15.988281 -33 14.390625 -33.109375 12.796875 -33.203125 C 11.203125 -33.304688 9.570312 -33.421875 7.90625 -33.546875 C 8.164062 -31.109375 8.421875 -28.765625 8.671875 -26.515625 C 8.929688 -24.265625 9.175781 -22.03125 9.40625 -19.8125 C 11.164062 -20 12.929688 -20.195312 14.703125 -20.40625 C 16.472656 -20.625 18.222656 -20.828125 19.953125 -21.015625 C 22.523438 -21.304688 23.941406 -20.597656 24.203125 -18.890625 C 24.328125 -18.085938 24.09375 -17.390625 23.5 -16.796875 C 22.90625 -16.203125 22 -15.828125 20.78125 -15.671875 C 19.101562 -15.441406 17.445312 -15.242188 15.8125 -15.078125 C 14.175781 -14.921875 12.519531 -14.78125 10.84375 -14.65625 C 10.300781 -14.59375 9.929688 -14.445312 9.734375 -14.21875 C 9.546875 -13.988281 9.46875 -13.617188 9.5 -13.109375 C 9.53125 -11.660156 9.546875 -10.210938 9.546875 -8.765625 C 9.546875 -7.328125 9.5625 -5.882812 9.59375 -4.4375 C 9.59375 -4.175781 9.59375 -3.898438 9.59375 -3.609375 C 9.59375 -3.328125 9.59375 -3.054688 9.59375 -2.796875 C 9.53125 -1.960938 9.289062 -1.296875 8.875 -0.796875 C 8.457031 -0.296875 7.925781 -0.03125 7.28125 0 C 6.632812 0.03125 6.078125 -0.179688 5.609375 -0.640625 C 5.148438 -1.109375 4.890625 -1.765625 4.828125 -2.609375 C 4.753906 -4.273438 4.71875 -5.9375 4.71875 -7.59375 C 4.71875 -9.25 4.6875 -10.910156 4.625 -12.578125 C 4.53125 -15.691406 4.425781 -18.804688 4.3125 -21.921875 C 4.195312 -25.046875 4.078125 -28.164062 3.953125 -31.28125 C 3.921875 -31.832031 3.695312 -32.25 3.28125 -32.53125 C 2.476562 -33.082031 2.039062 -33.71875 1.96875 -34.4375 C 1.90625 -35.164062 2.273438 -35.785156 3.078125 -36.296875 C 4.304688 -37.066406 5.640625 -37.550781 7.078125 -37.75 C 9.460938 -38.09375 11.832031 -38.222656 14.1875 -38.140625 C 16.550781 -38.066406 18.875 -37.613281 21.15625 -36.78125 C 21.539062 -36.65625 21.910156 -36.507812 22.265625 -36.34375 C 22.617188 -36.1875 22.957031 -36.007812 23.28125 -35.8125 C 23.757812 -35.519531 24.101562 -35.132812 24.3125 -34.65625 C 24.519531 -34.175781 24.484375 -33.710938 24.203125 -33.265625 C 23.941406 -32.941406 23.578125 -32.648438 23.109375 -32.390625 C 22.648438 -32.128906 22.207031 -32.019531 21.78125 -32.0625 C 21.082031 -32.0625 20.382812 -32.179688 19.6875 -32.421875 C 19 -32.660156 18.300781 -32.8125 17.59375 -32.875 Z M 17.59375 -32.875 "/></g></g></g><g fill="#b0a4d6" fill-opacity="1"><g transform="translate(85.486772, 40.429101)"><g><path d="M 19.953125 -18.125 C 20.148438 -17.832031 20.28125 -17.445312 20.34375 -16.96875 C 20.40625 -16.488281 20.359375 -16.132812 20.203125 -15.90625 C 20.066406 -15.675781 19.765625 -15.53125 19.296875 -15.46875 C 18.835938 -15.40625 18.429688 -15.390625 18.078125 -15.421875 C 17.722656 -15.453125 17.382812 -15.5625 17.0625 -15.75 C 16.738281 -15.945312 16.429688 -16.144531 16.140625 -16.34375 C 15.179688 -16.882812 14.40625 -17.128906 13.8125 -17.078125 C 13.21875 -17.035156 12.519531 -16.628906 11.71875 -15.859375 C 10.300781 -14.472656 9.191406 -12.925781 8.390625 -11.21875 C 7.585938 -9.519531 7.039062 -7.691406 6.75 -5.734375 C 6.6875 -5.222656 6.640625 -4.707031 6.609375 -4.1875 C 6.578125 -3.675781 6.523438 -3.164062 6.453125 -2.65625 C 6.390625 -2.007812 6.207031 -1.453125 5.90625 -0.984375 C 5.601562 -0.523438 5.082031 -0.273438 4.34375 -0.234375 C 3.601562 -0.234375 3.054688 -0.457031 2.703125 -0.90625 C 2.347656 -1.363281 2.171875 -1.914062 2.171875 -2.5625 C 2.078125 -4.070312 2.007812 -5.570312 1.96875 -7.0625 C 1.9375 -8.550781 1.957031 -10.035156 2.03125 -11.515625 C 2.0625 -13.023438 2.144531 -14.523438 2.28125 -16.015625 C 2.425781 -17.515625 2.566406 -19.003906 2.703125 -20.484375 C 2.734375 -20.710938 2.753906 -20.953125 2.765625 -21.203125 C 2.785156 -21.460938 2.859375 -21.675781 2.984375 -21.84375 C 3.210938 -22.09375 3.46875 -22.363281 3.75 -22.65625 C 4.039062 -22.945312 4.300781 -23.078125 4.53125 -23.046875 C 4.820312 -23.015625 5.144531 -22.851562 5.5 -22.5625 C 5.851562 -22.269531 6.0625 -21.992188 6.125 -21.734375 C 6.25 -20.898438 6.328125 -20.054688 6.359375 -19.203125 C 6.390625 -18.359375 6.421875 -17.484375 6.453125 -16.578125 C 7.128906 -17.160156 7.769531 -17.738281 8.375 -18.3125 C 8.988281 -18.894531 9.632812 -19.410156 10.3125 -19.859375 C 11.40625 -20.566406 12.546875 -20.96875 13.734375 -21.0625 C 14.921875 -21.15625 16.0625 -20.953125 17.15625 -20.453125 C 18.25 -19.960938 19.179688 -19.1875 19.953125 -18.125 Z M 19.953125 -18.125 "/></g></g></g><g fill="#b0a4d6" fill-opacity="1"><g transform="translate(118.111684, 40.429101)"><g><path d="M 6.609375 -11.328125 C 6.609375 -11.328125 6.523438 -11.28125 6.359375 -11.1875 C 6.171875 -9.769531 6.378906 -8.503906 6.984375 -7.390625 C 7.597656 -6.285156 8.488281 -5.425781 9.65625 -4.8125 C 10.832031 -4.207031 12.160156 -3.984375 13.640625 -4.140625 C 14.316406 -4.242188 14.984375 -4.347656 15.640625 -4.453125 C 16.296875 -4.566406 16.960938 -4.609375 17.640625 -4.578125 C 17.992188 -4.546875 18.394531 -4.410156 18.84375 -4.171875 C 19.289062 -3.929688 19.550781 -3.679688 19.625 -3.421875 C 19.6875 -3.160156 19.585938 -2.8125 19.328125 -2.375 C 19.066406 -1.945312 18.796875 -1.65625 18.515625 -1.5 C 16.710938 -0.5625 14.882812 -0.0625 13.03125 0 C 11.1875 0.0625 9.347656 -0.367188 7.515625 -1.296875 C 5.753906 -2.203125 4.40625 -3.382812 3.46875 -4.84375 C 2.539062 -6.300781 2.039062 -7.976562 1.96875 -9.875 C 1.84375 -14.050781 3.128906 -17.863281 5.828125 -21.3125 C 7.015625 -22.820312 8.421875 -23.769531 10.046875 -24.15625 C 11.671875 -24.539062 13.382812 -24.328125 15.1875 -23.515625 C 16.914062 -22.742188 18.191406 -21.5625 19.015625 -19.96875 C 19.835938 -18.382812 20.039062 -16.722656 19.625 -14.984375 C 19.070312 -12.734375 17.207031 -11.5625 14.03125 -11.46875 C 12.769531 -11.4375 11.519531 -11.410156 10.28125 -11.390625 C 9.050781 -11.378906 7.828125 -11.359375 6.609375 -11.328125 Z M 9.640625 -19.8125 C 8.867188 -19.101562 8.273438 -18.289062 7.859375 -17.375 C 7.441406 -16.457031 7.070312 -15.503906 6.75 -14.515625 C 8.0625 -14.546875 9.335938 -14.582031 10.578125 -14.625 C 11.816406 -14.675781 13.046875 -14.75 14.265625 -14.84375 C 14.585938 -14.875 14.914062 -14.984375 15.25 -15.171875 C 15.59375 -15.367188 15.828125 -15.597656 15.953125 -15.859375 C 16.242188 -16.398438 16.203125 -17.097656 15.828125 -17.953125 C 15.460938 -18.804688 14.972656 -19.425781 14.359375 -19.8125 C 13.492188 -20.320312 12.644531 -20.582031 11.8125 -20.59375 C 10.976562 -20.613281 10.253906 -20.351562 9.640625 -19.8125 Z M 9.640625 -19.8125 "/></g></g></g><g fill="#b0a4d6" fill-opacity="1"><g transform="translate(150.206641, 40.429101)"><g><path d="M 17.546875 -8.046875 C 18.085938 -7.015625 18.296875 -6.007812 18.171875 -5.03125 C 18.046875 -4.050781 17.5625 -3.160156 16.71875 -2.359375 C 15.4375 -1.140625 14.023438 -0.28125 12.484375 0.21875 C 10.941406 0.71875 9.269531 0.820312 7.46875 0.53125 C 7.144531 0.46875 6.84375 0.390625 6.5625 0.296875 C 5.75 -0.0234375 5.125 -0.453125 4.6875 -0.984375 C 4.257812 -1.515625 4.109375 -2.070312 4.234375 -2.65625 C 4.398438 -3.195312 4.644531 -3.5625 4.96875 -3.75 C 5.289062 -3.945312 5.660156 -4.050781 6.078125 -4.0625 C 6.492188 -4.082031 6.894531 -4.109375 7.28125 -4.140625 C 7.40625 -4.171875 7.53125 -4.175781 7.65625 -4.15625 C 7.789062 -4.144531 7.921875 -4.140625 8.046875 -4.140625 C 8.078125 -4.109375 8.09375 -4.066406 8.09375 -4.015625 C 8.09375 -3.972656 8.109375 -3.921875 8.140625 -3.859375 C 8.816406 -4.046875 9.507812 -4.210938 10.21875 -4.359375 C 10.925781 -4.503906 11.601562 -4.722656 12.25 -5.015625 C 13.050781 -5.335938 13.484375 -5.679688 13.546875 -6.046875 C 13.609375 -6.421875 13.300781 -6.894531 12.625 -7.46875 C 12.019531 -7.945312 11.363281 -8.363281 10.65625 -8.71875 C 9.945312 -9.070312 9.222656 -9.425781 8.484375 -9.78125 C 7.972656 -10.039062 7.425781 -10.242188 6.84375 -10.390625 C 6.269531 -10.535156 5.707031 -10.75 5.15625 -11.03125 C 3.84375 -11.738281 2.921875 -12.734375 2.390625 -14.015625 C 1.859375 -15.304688 1.816406 -16.675781 2.265625 -18.125 C 2.679688 -19.570312 3.40625 -20.769531 4.4375 -21.71875 C 5.46875 -22.664062 6.65625 -23.332031 8 -23.71875 C 9.351562 -24.101562 10.71875 -24.15625 12.09375 -23.875 C 13.476562 -23.601562 14.734375 -22.972656 15.859375 -21.984375 C 16.398438 -21.492188 16.769531 -20.898438 16.96875 -20.203125 C 17.03125 -19.972656 17.019531 -19.695312 16.9375 -19.375 C 16.863281 -19.050781 16.742188 -18.8125 16.578125 -18.65625 C 16.453125 -18.5625 16.226562 -18.535156 15.90625 -18.578125 C 15.582031 -18.628906 15.3125 -18.703125 15.09375 -18.796875 C 14.1875 -19.242188 13.25 -19.597656 12.28125 -19.859375 C 11.320312 -20.117188 10.328125 -20.070312 9.296875 -19.71875 C 8.304688 -19.332031 7.503906 -18.722656 6.890625 -17.890625 C 6.316406 -17.109375 6.148438 -16.394531 6.390625 -15.75 C 6.628906 -15.113281 7.210938 -14.617188 8.140625 -14.265625 C 8.910156 -14.003906 9.691406 -13.742188 10.484375 -13.484375 C 11.273438 -13.234375 12.039062 -12.929688 12.78125 -12.578125 C 14.894531 -11.617188 16.484375 -10.109375 17.546875 -8.046875 Z M 17.546875 -8.046875 "/></g></g></g><g fill="#b0a4d6" fill-opacity="1"><g transform="translate(180.71181, 40.429101)"><g><path d="M 20.484375 -5.875 C 20.515625 -5.332031 20.410156 -4.84375 20.171875 -4.40625 C 19.929688 -3.976562 19.488281 -3.726562 18.84375 -3.65625 C 18.164062 -3.5625 17.640625 -3.707031 17.265625 -4.09375 C 16.898438 -4.476562 16.65625 -4.960938 16.53125 -5.546875 C 16.40625 -6.117188 16.332031 -6.703125 16.3125 -7.296875 C 16.300781 -7.890625 16.265625 -8.476562 16.203125 -9.0625 C 16.097656 -9.800781 16.003906 -10.539062 15.921875 -11.28125 C 15.847656 -12.019531 15.726562 -12.757812 15.5625 -13.5 C 15.4375 -14.070312 15.171875 -14.472656 14.765625 -14.703125 C 14.367188 -14.929688 13.878906 -14.867188 13.296875 -14.515625 C 12.847656 -14.253906 12.40625 -13.960938 11.96875 -13.640625 C 11.539062 -13.316406 11.164062 -12.945312 10.84375 -12.53125 C 9.75 -11.113281 8.90625 -9.585938 8.3125 -7.953125 C 7.71875 -6.316406 7.304688 -4.597656 7.078125 -2.796875 C 7.046875 -2.597656 7.019531 -2.394531 7 -2.1875 C 6.988281 -1.976562 6.953125 -1.78125 6.890625 -1.59375 C 6.734375 -1.070312 6.484375 -0.648438 6.140625 -0.328125 C 5.804688 -0.015625 5.347656 0.125 4.765625 0.09375 C 4.160156 0.0625 3.6875 -0.128906 3.34375 -0.484375 C 3.007812 -0.835938 2.8125 -1.285156 2.75 -1.828125 C 2.6875 -2.378906 2.644531 -2.925781 2.625 -3.46875 C 2.613281 -4.019531 2.59375 -4.566406 2.5625 -5.109375 C 2.238281 -10.054688 2.039062 -14.992188 1.96875 -19.921875 C 1.90625 -24.859375 2.035156 -29.800781 2.359375 -34.75 C 2.390625 -34.976562 2.410156 -35.210938 2.421875 -35.453125 C 2.441406 -35.691406 2.503906 -35.910156 2.609375 -36.109375 C 2.734375 -36.265625 2.90625 -36.429688 3.125 -36.609375 C 3.351562 -36.785156 3.566406 -36.875 3.765625 -36.875 C 3.953125 -36.875 4.164062 -36.785156 4.40625 -36.609375 C 4.644531 -36.429688 4.800781 -36.25 4.875 -36.0625 C 5 -35.632812 5.082031 -35.203125 5.125 -34.765625 C 5.175781 -34.335938 5.21875 -33.898438 5.25 -33.453125 C 5.351562 -30.429688 5.453125 -27.410156 5.546875 -24.390625 C 5.640625 -21.367188 5.734375 -18.347656 5.828125 -15.328125 C 5.859375 -15.003906 5.890625 -14.664062 5.921875 -14.3125 C 5.960938 -13.957031 6.015625 -13.523438 6.078125 -13.015625 C 6.398438 -13.429688 6.664062 -13.789062 6.875 -14.09375 C 7.082031 -14.40625 7.296875 -14.671875 7.515625 -14.890625 C 7.960938 -15.335938 8.40625 -15.78125 8.84375 -16.21875 C 9.28125 -16.65625 9.753906 -17.035156 10.265625 -17.359375 C 12.359375 -18.703125 14.269531 -19.050781 16 -18.40625 C 17.738281 -17.769531 18.910156 -16.257812 19.515625 -13.875 C 19.835938 -12.59375 20.046875 -11.273438 20.140625 -9.921875 C 20.242188 -8.578125 20.359375 -7.226562 20.484375 -5.875 Z M 20.484375 -5.875 "/></g></g></g><g clip-path="url(#905ca53b65)"><g clip-path="url(#e615f2ed41)"><g clip-path="url(#bfd9a14b3a)"><path fill="#ffffff" d="M 123.546875 63.257812 C 119.589844 63.703125 115.78125 65.433594 112.828125 68.234375 C 108.660156 72.175781 107.703125 80.601562 107.726562 86.503906 C 107.730469 86.855469 107.921875 87.082031 108.152344 87.175781 C 108.144531 87.210938 108.148438 87.25 108.144531 87.285156 L 108.484375 87.214844 C 108.527344 87.203125 108.570312 87.199219 108.609375 87.183594 L 144.761719 79.464844 C 144.847656 79.460938 144.933594 79.445312 145.015625 79.410156 L 145.027344 79.40625 L 145.019531 79.40625 C 145.296875 79.277344 145.5 78.960938 145.367188 78.546875 C 143.558594 72.917969 140.929688 67.214844 135.742188 64.695312 C 131.914062 62.832031 127.554688 62.332031 123.519531 63.214844 C 123.53125 63.234375 123.535156 63.246094 123.546875 63.257812 Z M 123.546875 63.257812 " fill-opacity="1" fill-rule="nonzero"/></g></g></g><g clip-path="url(#7134f86136)"><g clip-path="url(#ef90ca07b4)"><g clip-path="url(#1cea66887c)"><path fill="#ffd246" d="M 121.308594 66.273438 C 123.3125 65.402344 126.007812 66.234375 126.097656 68.578125 C 126.167969 70.472656 126.21875 72.410156 126.273438 74.320312 C 126.308594 75.445312 126.652344 78.628906 126.539062 79.164062 C 126.753906 79.816406 126.253906 80.753906 125.402344 79.457031 C 123.488281 76.542969 121.308594 73.867188 119.507812 70.886719 C 118.265625 68.828125 119.304688 67.140625 121.308594 66.273438 Z M 127.296875 78.636719 C 126.964844 80.097656 127.945312 79.851562 128.257812 79.269531 C 128.703125 79 130.683594 76.679688 131.441406 75.917969 C 132.730469 74.632812 134.039062 73.339844 135.308594 72.054688 C 136.875 70.460938 135.664062 67.953125 133.738281 67.058594 C 131.808594 66.167969 129.949219 66.503906 129.34375 68.75 C 128.46875 72.007812 128.058594 75.339844 127.296875 78.636719 Z M 114.496094 77 C 117.625 78.253906 120.882812 79.070312 124.058594 80.222656 C 125.472656 80.730469 125.347656 79.726562 124.808594 79.351562 C 124.589844 78.875 122.527344 76.628906 121.867188 75.78125 C 120.75 74.347656 119.621094 72.890625 118.496094 71.476562 C 117.109375 69.726562 114.46875 70.621094 113.351562 72.429688 C 112.230469 74.238281 112.339844 76.125 114.496094 77 Z M 123.671875 80.890625 C 123.226562 80.625 120.242188 79.96875 119.214844 79.660156 C 117.476562 79.125 115.714844 78.582031 113.984375 78.066406 C 111.839844 77.4375 110.199219 79.683594 110.320312 81.804688 C 110.4375 83.929688 111.617188 85.40625 113.878906 84.886719 C 117.167969 84.121094 120.296875 82.914062 123.5625 82.035156 C 125.011719 81.640625 124.328125 80.890625 123.671875 80.890625 Z M 129.746094 80.914062 C 130.269531 80.941406 133.203125 80.105469 134.253906 79.890625 C 136.039062 79.539062 137.847656 79.1875 139.617188 78.820312 C 141.800781 78.363281 142.1875 75.609375 141.074219 73.792969 C 139.96875 71.980469 138.234375 71.234375 136.484375 72.765625 C 133.945312 74.992188 131.757812 77.535156 129.304688 79.855469 C 128.210938 80.890625 129.167969 81.226562 129.746094 80.914062 Z M 129.746094 80.914062 " fill-opacity="1" fill-rule="nonzero"/></g></g></g><g clip-path="url(#ca2fda1e1c)"><g clip-path="url(#cee3271fbc)"><g clip-path="url(#72ccf1c675)"><path fill="#e2d8a2" d="M 123.53125 63.261719 C 123.523438 63.246094 123.519531 63.234375 123.507812 63.21875 C 127.597656 62.324219 132.003906 62.816406 135.875 64.667969 C 141.125 67.179688 143.773438 72.871094 145.589844 78.5 C 145.867188 79.363281 144.699219 79.824219 144.421875 78.964844 C 142.765625 73.824219 140.621094 69.179688 136.167969 66.363281 C 132.53125 64.0625 123.777344 64.429688 123.761719 64.722656 C 119.707031 65.152344 115.667969 66.691406 112.914062 69.964844 C 109.542969 73.972656 108.714844 81.25 108.722656 86.644531 C 108.726562 87.546875 107.46875 87.449219 107.464844 86.546875 C 107.457031 80.644531 108.445312 72.21875 112.671875 68.261719 C 115.664062 65.453125 119.527344 63.710938 123.53125 63.261719 Z M 123.53125 63.261719 " fill-opacity="1" fill-rule="nonzero"/></g></g></g><g clip-path="url(#fd85959419)"><g clip-path="url(#c588659192)"><g clip-path="url(#c24cc06081)"><path fill="#ffffff" d="M 161.289062 63.257812 C 157.335938 63.703125 153.527344 65.433594 150.574219 68.234375 C 146.40625 72.175781 145.449219 80.601562 145.472656 86.503906 C 145.472656 86.855469 145.667969 87.082031 145.898438 87.175781 C 145.890625 87.210938 145.894531 87.25 145.886719 87.285156 L 146.226562 87.214844 C 146.269531 87.203125 146.3125 87.199219 146.355469 87.183594 L 182.507812 79.464844 C 182.59375 79.460938 182.679688 79.445312 182.761719 79.410156 L 182.769531 79.40625 L 182.765625 79.40625 C 183.042969 79.277344 183.246094 78.960938 183.109375 78.546875 C 181.304688 72.917969 178.675781 67.214844 173.484375 64.695312 C 169.65625 62.832031 165.300781 62.332031 161.265625 63.214844 C 161.273438 63.234375 161.28125 63.246094 161.289062 63.257812 Z M 161.289062 63.257812 " fill-opacity="1" fill-rule="nonzero"/></g></g></g><g clip-path="url(#94483846ad)"><g clip-path="url(#a10196c903)"><g clip-path="url(#14ef915f14)"><path fill="#ffd246" d="M 159.054688 66.273438 C 161.058594 65.402344 163.753906 66.234375 163.84375 68.578125 C 163.914062 70.472656 163.960938 72.410156 164.015625 74.320312 C 164.050781 75.445312 164.394531 78.628906 164.28125 79.164062 C 164.496094 79.816406 164 80.753906 163.148438 79.457031 C 161.234375 76.542969 159.054688 73.867188 157.25 70.886719 C 156.011719 68.828125 157.046875 67.140625 159.054688 66.273438 Z M 165.042969 78.636719 C 164.710938 80.097656 165.691406 79.851562 166 79.269531 C 166.449219 79 168.425781 76.679688 169.1875 75.917969 C 170.476562 74.632812 171.785156 73.339844 173.050781 72.054688 C 174.621094 70.460938 173.410156 67.953125 171.484375 67.058594 C 169.554688 66.167969 167.691406 66.503906 167.089844 68.75 C 166.214844 72.007812 165.800781 75.339844 165.042969 78.636719 Z M 152.242188 77 C 155.367188 78.253906 158.625 79.070312 161.804688 80.222656 C 163.214844 80.730469 163.089844 79.726562 162.550781 79.351562 C 162.335938 78.875 160.273438 76.628906 159.609375 75.78125 C 158.492188 74.347656 157.363281 72.890625 156.242188 71.476562 C 154.851562 69.726562 152.214844 70.621094 151.09375 72.429688 C 149.972656 74.238281 150.085938 76.125 152.242188 77 Z M 161.414062 80.890625 C 160.96875 80.625 157.988281 79.96875 156.960938 79.660156 C 155.21875 79.125 153.460938 78.582031 151.726562 78.066406 C 149.582031 77.4375 147.941406 79.683594 148.0625 81.804688 C 148.179688 83.929688 149.359375 85.40625 151.625 84.886719 C 154.910156 84.121094 158.042969 82.914062 161.308594 82.035156 C 162.757812 81.640625 162.074219 80.890625 161.414062 80.890625 Z M 167.488281 80.914062 C 168.011719 80.941406 170.945312 80.105469 172 79.890625 C 173.785156 79.539062 175.589844 79.1875 177.363281 78.820312 C 179.546875 78.363281 179.933594 75.609375 178.820312 73.792969 C 177.714844 71.980469 175.976562 71.234375 174.226562 72.765625 C 171.691406 74.992188 169.503906 77.535156 167.046875 79.855469 C 165.957031 80.890625 166.910156 81.226562 167.488281 80.914062 Z M 167.488281 80.914062 " fill-opacity="1" fill-rule="nonzero"/></g></g></g><g clip-path="url(#fe37b7ea3b)"><g clip-path="url(#30c3d4ff95)"><g clip-path="url(#4a577e051c)"><path fill="#e2d8a2" d="M 161.277344 63.261719 C 161.269531 63.246094 161.261719 63.234375 161.253906 63.21875 C 165.339844 62.324219 169.75 62.816406 173.621094 64.667969 C 178.871094 67.179688 181.519531 72.871094 183.335938 78.5 C 183.613281 79.363281 182.441406 79.824219 182.167969 78.964844 C 180.507812 73.824219 178.363281 69.179688 173.914062 66.363281 C 170.277344 64.0625 161.523438 64.429688 161.507812 64.722656 C 157.453125 65.152344 153.414062 66.691406 150.660156 69.964844 C 147.285156 73.972656 146.457031 81.25 146.464844 86.644531 C 146.46875 87.546875 145.210938 87.449219 145.207031 86.546875 C 145.203125 80.644531 146.1875 72.21875 150.414062 68.261719 C 153.410156 65.453125 157.273438 63.710938 161.277344 63.261719 Z M 161.277344 63.261719 " fill-opacity="1" fill-rule="nonzero"/></g></g></g></svg>